<?xml version="1.0" encoding="utf-8"?>
<!-- Generator: Adobe Illustrator 21.0.0, SVG Export Plug-In . SVG Version: 6.00 Build 0)  -->
<svg version="1.1" id="Capa_1" xmlns="http://www.w3.org/2000/svg" xmlns:xlink="http://www.w3.org/1999/xlink" x="0px" y="0px"
	 viewBox="0 0 333 374.8" style="enable-background:new 0 0 333 374.8;" xml:space="preserve">
<g>
	<path d="M92.7,152.8c17.7,42,51.4,64.9,73.8,64.9c22.1,0,53-22.1,70.9-63.6c4.3-10.1,8.1-22.9,10.7-35.5
		c2.9-10.1,4.5-22.8,4.5-39.1c0-43.1-38.6-79.4-86.2-79.4c-47.6,0-86.2,36.3-86.2,79.4c0,11.4,0.7,21,2,29.2
		C84.1,123.6,87.5,140.5,92.7,152.8z"/>
	<path d="M318.9,275.6c-17.2-18.4-65.7-13.8-89.6-26.5c-10.6,19.9-10.8,52.6-28.5,52.6c-0.8,0-1.5-0.1-2.4-0.2
		c-26.6-4-13.3-71.9-32-71.9c-18.6,0-5.3,67.9-32,71.9c-0.8,0.1-1.6,0.2-2.4,0.2c-17.7,0-17.8-32.7-28.5-52.6
		c-23.9,12.7-72.4,8-89.5,26.5C4.8,285.6,0,347.4,0,374.8h333C333,347.4,328.2,285.6,318.9,275.6z"/>
</g>
</svg>
