<?xml version="1.0" encoding="utf-8"?>
<!-- Generator: Adobe Illustrator 21.0.0, SVG Export Plug-In . SVG Version: 6.00 Build 0)  -->
<svg version="1.1" id="Capa_1" xmlns="http://www.w3.org/2000/svg" xmlns:xlink="http://www.w3.org/1999/xlink" x="0px" y="0px"
	 viewBox="0 0 275.3 380.3" style="enable-background:new 0 0 275.3 380.3;" xml:space="preserve">
<g>
	<path d="M39.6,0C20.1,0,3.7,14.4,0.6,33.1H0v275.7h0.8c3.6,18.2,19.6,31.9,38.8,31.9h11v39.6l30.3-19.2l30.3,19.2v-39.6h164.1
		v-67.6v-11.6V0H39.6z M11.6,273.2V40.6l0-1.6c0.2-12.3,8.5-22.7,19.7-26.2v249.6c-0.2,0-0.4,0.1-0.6,0.1c-0.3,0.1-0.7,0.1-1,0.2
		c-0.3,0.1-0.6,0.2-0.9,0.3c-0.3,0.1-0.6,0.2-1,0.3c-0.3,0.1-0.6,0.2-0.9,0.3c-0.3,0.1-0.6,0.2-0.9,0.3c-0.3,0.1-0.6,0.2-0.9,0.3
		c-0.3,0.1-0.6,0.2-0.9,0.4c-0.3,0.1-0.6,0.3-0.9,0.4c-0.3,0.1-0.6,0.3-0.9,0.4c-0.3,0.1-0.5,0.3-0.8,0.4c-0.3,0.2-0.6,0.3-0.9,0.5
		c-0.3,0.1-0.5,0.3-0.8,0.4c-0.3,0.2-0.6,0.3-0.9,0.5c-0.2,0.1-0.5,0.3-0.7,0.5c-0.3,0.2-0.6,0.4-0.9,0.6c-0.2,0.2-0.5,0.3-0.7,0.5
		c-0.3,0.2-0.6,0.4-0.9,0.6c-0.2,0.2-0.4,0.3-0.6,0.5c-0.3,0.2-0.6,0.5-0.9,0.7c-0.2,0.2-0.4,0.3-0.6,0.5c-0.3,0.2-0.6,0.5-0.9,0.8
		c-0.2,0.2-0.4,0.3-0.5,0.5C12.1,272.7,11.8,273,11.6,273.2C11.6,273.2,11.6,273.2,11.6,273.2z M99.7,359.3l-18.8-11.9l-18.7,11.9
		v-41.8h37.5V359.3z M111.2,329.2v-12.6h152.5v12.6H111.2z M263.8,283.8H206v11.6h57.8v9.6H37.1v11.6h13.6v12.6h-11
		c-14.4,0-26.3-10.9-27.9-24.9l-0.1-2.1c0-0.3,0-0.7,0-1c0-15.5,12.6-28,28-28h224.2V283.8z M42.8,261.6v-250h220.9v250H42.8z"/>
	<path d="M78.2,124.3h146.5V54.1H78.2V124.3z M89.8,65.7h123.4v47.1H89.8V65.7z"/>
</g>
</svg>
