<?xml version="1.0" encoding="utf-8"?>
<!-- Generator: Adobe Illustrator 21.0.0, SVG Export Plug-In . SVG Version: 6.00 Build 0)  -->
<svg version="1.1" id="Capa_1" xmlns="http://www.w3.org/2000/svg" xmlns:xlink="http://www.w3.org/1999/xlink" x="0px" y="0px"
	 viewBox="0 0 287.5 288.3" style="enable-background:new 0 0 287.5 288.3;" xml:space="preserve">
<g>
	<path d="M93.9,212c0-25.9-21.1-46.9-46.9-46.9S0,186.2,0,212c0,11.9,4.4,23.2,12.5,31.8v44.4H21v-47.9l-1.2-1.2
		c-7.2-7.2-11.2-16.9-11.2-27.1c0-21.2,17.2-38.4,38.4-38.4s38.4,17.2,38.4,38.4c0,0.4,0,0.8,0,1.2l-0.1,1.8L96,233.6h-6.8v21.1
		c0,4-3.3,7.2-7.3,7.2H59.5v26.3H68v-17.8h14c8.7,0,15.8-7.1,15.8-15.8v-12.6h13l-16.9-29.2C93.8,212.6,93.9,212.3,93.9,212z"/>
	<path d="M248.2,186.4c-21.7,0-39.3,17.6-39.3,39.3c0,0.2,0,0.3,0,0.5l-14.4,24.9h11.3v9.6c0,7.6,6.1,13.7,13.7,13.7h10.7v13.8h8.5
		v-22.4h-19.2c-2.9,0-5.2-2.3-5.2-5.2v-18.1h-5l8.2-14.3l-0.1-1.6c0-0.4,0-0.7,0-1.1c0-17,13.8-30.8,30.8-30.8
		c17,0,30.8,13.8,30.8,30.8c0,8.2-3.2,15.9-9,21.7l-1.2,1.2v39.6h8.5v-36.1c6.6-7.3,10.2-16.6,10.2-26.4
		C287.5,204.1,269.9,186.4,248.2,186.4z"/>
	<rect x="150.4" y="265.2" width="8.5" height="7.7"/>
	<path d="M147,174.7c-18.4,0-31.5,14.2-31.9,34.6l8.5,0.2c0.3-16,9.5-26.3,23.4-26.3c23.8,0,24.1,18.7,24.1,19.5
		c0,11.3-4.7,15-10,19.1c-4.5,3.5-9.6,7.4-10.6,15.6l0,19.4h8.5v-18.6c0.6-4.3,3.1-6.4,7.4-9.7c5.9-4.6,13.3-10.4,13.3-25.9
		c0-6.6-2.7-13.3-7.3-18.3C168.2,180,160.5,174.7,147,174.7z"/>
	<path d="M45.1,164.9l45.8-41.4h10.5v25.8h95.1l33.4,33.4v-33.4h25.3V37.6h-39.5V0H14.6v123.5h30.5V164.9z M246.7,46.1v94.6h-25.3
		v21.4l-21.3-21.4h-90.1v-17.2h105.8V46.1H246.7z M23.1,115V8.5h184.1V115H87.6l-34,30.8V115H23.1z"/>
	<rect x="56.5" y="39.9" width="117.4" height="8.5"/>
	<rect x="56.5" y="56.3" width="117.4" height="8.5"/>
	<rect x="56.5" y="72.8" width="117.4" height="8.5"/>
</g>
</svg>
