<?xml version="1.0" encoding="utf-8"?>
<!-- Generator: Adobe Illustrator 21.0.0, SVG Export Plug-In . SVG Version: 6.00 Build 0)  -->
<svg version="1.1" id="Capa_1" xmlns="http://www.w3.org/2000/svg" xmlns:xlink="http://www.w3.org/1999/xlink" x="0px" y="0px"
	 viewBox="0 0 333.7 284" style="enable-background:new 0 0 333.7 284;" xml:space="preserve">
<g>
	<path d="M0,0v284h333.7V0H0z M11.4,11.4h310.9v20.5H11.4V11.4z M11.4,272.6V41.7h310.9v230.9H11.4z"/>
	<rect x="17.2" y="16.1" width="12.8" height="9.8"/>
	<rect x="35.2" y="16.1" width="12.8" height="9.8"/>
	<rect x="53.2" y="16.1" width="12.8" height="9.8"/>
	<path d="M57.6,117.9h27.2l6.5,18.7l9.3-3.2L75.8,62.1l-9.3,0l-24.7,71.2l9.3,3.2L57.6,117.9z M71.2,78.7l10.2,29.4H61L71.2,78.7z"
		/>
	<rect x="112.1" y="62.2" width="166.9" height="9.8"/>
	<rect x="112.1" y="83.8" width="166.9" height="9.8"/>
	<rect x="112.1" y="105.3" width="166.9" height="9.8"/>
	<rect x="112.1" y="126.9" width="166.9" height="9.8"/>
	<rect x="39" y="148.5" width="239.9" height="9.8"/>
	<polygon points="39,170.1 39,179.9 39,180 278.9,180 278.9,179.9 278.9,170.1 278.9,170.1 39,170.1 	"/>
	<polygon points="39,191.7 39,201.5 39,201.5 278.9,201.5 278.9,201.5 278.9,191.7 278.9,191.7 39,191.7 	"/>
	<polygon points="39,213.3 39,223.1 39,223.1 278.9,223.1 278.9,223.1 278.9,213.3 278.9,213.3 39,213.3 	"/>
	<rect x="39" y="234.9" width="239.9" height="9.8"/>
</g>
</svg>
