<?xml version="1.0" encoding="UTF-8" standalone="no"?>
<svg xmlns="http://www.w3.org/2000/svg">
    <!-- Main logo -->
    <symbol id="main-logo" viewBox="0 0 247 125.6">
        <title>AvaTrade logo</title>
        <g>
            <polygon fill="#3197DE" points="5.5 0.5 5.5 13.9 7.5 13.9 7.5 2.5 128.7 2.5 128.7 12.8 130.6 12.7 130.6 0.5"/>
        	<polygon fill="#3197DE" points="128.7 123.3 7.5 123.3 7.5 111.2 5.5 111.2 5.5 125.2 130.6 125.2 130.6 111.2 128.7 111.2"/>
        	<path fill="#FFFFFF" d="m10.2 22.5v25.2h0.3l9.8-9h-3.9v-0.7h8.3v0.7h-3.4l-5.9 5.6 12.1 15.6h2.1v0.7h-14v-0.7h3.8l-8.9-11.4h-0.3v11.4h3.3v0.7h-13.2v-0.7h3.5v-36.7h-3.5v-0.7h9.9z"/>
        	<path fill="#FFFFFF" d="m30 61h-14.7v-1.5h3.4l-8.1-10.3v10.3h3.3v1.5h-14v-1.5h3.5v-35.9h-3.5v-1.5h10.7v25l8.8-8.1h-3.3v-1.5h9v1.5h-3.6l-5.5 5.3 11.8 15.2h2.2v1.5zm-14-0.7h13.3-1.9l-0.1-0.1-12.3-16 5.2-4.9-9.6 8.8h-0.7v-25.3h-9.2 3.5v37.4h-3.5 12.5-3.3v-12.1h0.8l9.5 12.2h-4.2zm5.3-22h3.2-7.6 4.4z"/>
        	<path fill="#FFFFFF" d="m42.1 37.9v16.8c0 1.3 0.3 2.5 0.8 3.4s1.5 1.4 2.8 1.4c0.8 0 1.6-0.2 2.2-0.6 0.7-0.4 1.2-0.9 1.7-1.6s0.8-1.4 1.1-2.3 0.4-1.8 0.4-2.8v-13.5h-3.5v-0.7h10v22h3.5v0.7h-9.8v-4.3h-0.1c-0.3 0.8-0.7 1.5-1.3 2-0.6 0.6-1.2 1.1-1.9 1.5s-1.5 0.7-2.3 0.9c-0.9 0.1-1.7 0.2-2.5 0.2-2.5 0-4.4-0.5-5.7-1.6s-2-2.9-2-5.5v-15.2h-3.5v-0.7h10.1z"/>
        	<path fill="#FFFFFF" d="m43.2 61.4c-2.5 0-4.5-0.6-5.9-1.7s-2.1-3.1-2.1-5.8v-14.9h-3.5v-1.5h10.7v17.1c0 1.3 0.3 2.4 0.7 3.2 0.5 0.8 1.3 1.2 2.5 1.2 0.7 0 1.4-0.2 2-0.5 0.6-0.4 1.2-0.9 1.6-1.5s0.8-1.4 1.1-2.2 0.4-1.7 0.4-2.6v-13.2h-3.5v-1.5h10.7v22h3.5v1.5h-10.6v-3.3c-0.2 0.3-0.5 0.6-0.7 0.9-0.6 0.6-1.3 1.1-2 1.5-0.8 0.4-1.6 0.7-2.4 0.9-0.9 0.3-1.7 0.4-2.5 0.4zm-10.8-23.1h3.6v15.7c0 2.4 0.6 4.2 1.8 5.2s3.1 1.5 5.4 1.5c0.7 0 1.5-0.1 2.3-0.3s1.5-0.5 2.2-0.9 1.3-0.9 1.8-1.4 0.9-1.2 1.2-1.9l0.1-0.2h0.7v4.3h9.1-3.5v-22h-9.2 3.5v14c0 1-0.1 1.9-0.4 2.9-0.3 0.9-0.7 1.7-1.2 2.4s-1.1 1.2-1.8 1.7c-0.7 0.4-1.5 0.6-2.4 0.6-1.5 0-2.5-0.5-3.1-1.6-0.6-1-0.8-2.2-0.8-3.6v-16.4h-9.3z"/>
        	<path fill="#FFFFFF" d="m75.7 37.9v4.4h0.1c0.6-1.3 1.5-2.5 2.6-3.5s2.5-1.5 4.3-1.5c1.5 0 2.7 0.4 3.6 1.2s1.4 1.9 1.4 3.3c0 1.1-0.3 1.9-0.8 2.5s-1.3 0.9-2.5 0.9c-0.8 0-1.6-0.2-2.2-0.5-0.7-0.3-1-1-1-1.9 0-0.1 0-0.3 0.1-0.6 0-0.3 0.1-0.5 0.1-0.8 0.1-0.3 0.1-0.6 0.1-0.8s0.1-0.4 0.1-0.4c0-0.3-0.1-0.5-0.2-0.7s-0.2-0.3-0.3-0.4c-0.2-0.1-0.4-0.2-0.7-0.2-0.4 0-0.8 0.2-1.3 0.5s-1 0.8-1.5 1.5c-0.5 0.6-0.9 1.4-1.2 2.3s-0.5 1.9-0.5 3v13.5h4.1v0.7h-14.1v-0.7h3.4v-21h-3.4v-0.7h9.8z"/>
        	<path fill="#FFFFFF" d="m80.4 61h-14.8v-1.5h3.4v-20.5h-3.4v-1.5h10.5v3.6c0.6-0.9 1.3-1.8 2.1-2.5 1.1-1 2.7-1.6 4.5-1.6 1.6 0 2.9 0.4 3.8 1.3 1 0.9 1.5 2.1 1.5 3.6 0 1.1-0.3 2.1-0.9 2.7-0.6 0.7-1.5 1-2.7 1-0.9 0-1.7-0.2-2.4-0.5-0.8-0.4-1.2-1.1-1.2-2.2 0-0.1 0-0.3 0.1-0.6 0-0.3 0.1-0.6 0.1-0.9 0.1-0.3 0.1-0.6 0.1-0.8v-0.4c0-0.2-0.1-0.4-0.1-0.5s-0.1-0.2-0.2-0.3-0.3-0.1-0.5-0.1-0.5 0.1-1.1 0.4c-0.5 0.3-1 0.8-1.4 1.4s-0.8 1.4-1.1 2.2c-0.3 0.9-0.5 1.8-0.5 2.9v13.2h4.2v1.6zm-14.1-0.7h13.3-4.2v-14c0-1.2 0.2-2.2 0.5-3.2 0.3-0.9 0.8-1.7 1.2-2.4 0.5-0.7 1-1.2 1.6-1.6 1.2-0.7 2-0.7 2.5-0.3 0.2 0.2 0.4 0.4 0.5 0.6s0.1 0.4 0.2 0.8c0 0.1 0 0.2-0.1 0.5 0 0.3-0.1 0.5-0.1 0.8-0.1 0.3-0.1 0.6-0.1 0.8v0.5c0 0.8 0.3 1.3 0.8 1.5 0.6 0.3 1.3 0.5 2.1 0.5 1 0 1.7-0.3 2.2-0.8s0.7-1.3 0.7-2.2c0-1.3-0.4-2.3-1.2-3s-2-1.1-3.4-1.1c-1.7 0-3 0.5-4 1.4s-1.9 2.1-2.5 3.4l-0.3 0.2h-0.7v-4.4h-9.1 3.4v22h-3.3z"/>
        	<path fill="#FFFFFF" d="m91.1 52.9c0.4 1 0.9 1.9 1.3 2.9 0.4 0.9 1 1.7 1.6 2.4s1.3 1.3 2.2 1.7c0.8 0.4 1.9 0.7 3.1 0.7 0.3 0 0.7 0 1.3-0.1 0.5 0 1-0.2 1.6-0.4 0.5-0.3 1-0.7 1.3-1.2 0.4-0.5 0.6-1.3 0.6-2.4 0-0.3 0-0.6-0.1-1-0.1-0.3-0.3-0.7-0.6-1-0.3-0.4-0.7-0.7-1.2-1s-1.3-0.7-2.2-1l-4.3-1.6c-0.5-0.2-1-0.4-1.6-0.7s-1.1-0.7-1.6-1.2-0.9-1.1-1.2-1.8-0.5-1.5-0.5-2.5 0.2-2 0.6-2.9 1-1.7 1.8-2.4 1.7-1.2 2.8-1.6 2.2-0.6 3.5-0.6c0.7 0 1.3 0.1 1.9 0.2s1.1 0.3 1.6 0.5 0.9 0.3 1.3 0.5c0.4 0.1 0.7 0.2 0.9 0.2 0.4 0 0.6-0.1 0.7-0.2s0.2-0.3 0.3-0.5h0.7v6.5h-0.9c-0.4-0.8-0.7-1.7-1.1-2.4-0.4-0.8-0.8-1.5-1.3-2-0.5-0.6-1.1-1-1.9-1.4-0.7-0.3-1.7-0.5-2.8-0.5-1.2 0-2.2 0.3-3.2 0.9s-1.5 1.5-1.5 2.7c0 0.2 0 0.5 0.1 0.8s0.2 0.6 0.5 1c0.2 0.3 0.6 0.7 1.2 1 0.5 0.3 1.2 0.7 2.1 1l4.5 1.5c1.9 0.7 3.4 1.6 4.3 2.6 1 1.1 1.5 2.5 1.5 4.2 0 1.2-0.3 2.2-0.8 3.1s-1.2 1.7-2 2.4-1.8 1.2-2.9 1.5c-1.1 0.4-2.2 0.5-3.4 0.5-0.6 0-1.3-0.1-2.1-0.2-0.7-0.1-1.5-0.3-2.1-0.5-0.7-0.2-1.3-0.4-1.9-0.5s-1-0.2-1.3-0.2-0.5 0.1-0.6 0.2-0.2 0.3-0.3 0.6h-0.7v-7.7h0.8z"/>
        	<path fill="#FFFFFF" d="m99.5 61.7c-0.7 0-1.4-0.1-2.1-0.2s-1.5-0.3-2.2-0.5-1.3-0.4-1.9-0.5c-0.5-0.1-1-0.2-1.2-0.2-0.3 0-0.4 0.1-0.4 0.1s-0.1 0.1-0.2 0.4l-0.1 0.2h-1.4v-8.4h1.4l0.1 0.2c0.4 1 0.9 2 1.3 2.8 0.4 0.9 0.9 1.7 1.5 2.4s1.3 1.2 2.1 1.6 1.8 0.6 3 0.6c0.3 0 0.7 0 1.2-0.1 0.5 0 1-0.2 1.4-0.4 0.5-0.2 0.9-0.6 1.2-1.1s0.5-1.2 0.5-2.1c0-0.3 0-0.6-0.1-0.9s-0.2-0.6-0.5-0.9-0.6-0.6-1.1-0.9-1.3-0.7-2.2-1l-4.3-1.6c-0.5-0.2-1.1-0.4-1.6-0.7-0.6-0.3-1.2-0.7-1.7-1.3-0.5-0.5-0.9-1.1-1.3-1.9-0.3-0.7-0.5-1.6-0.5-2.6 0-1.1 0.2-2.1 0.7-3.1 0.4-1 1.1-1.8 1.9-2.5s1.8-1.3 2.9-1.7 2.3-0.6 3.6-0.6c0.7 0 1.4 0.1 2 0.2s1.1 0.3 1.6 0.5 0.9 0.3 1.3 0.5 0.6 0.2 0.7 0.2c0.4 0 0.5-0.1 0.5-0.1 0.1-0.1 0.2-0.2 0.2-0.4l0.1-0.2h1.4v7.2h-1.3l-0.1-0.2c-0.4-0.8-0.7-1.7-1.1-2.4s-0.8-1.4-1.3-2c-0.5-0.5-1.1-1-1.8-1.3s-1.6-0.5-2.6-0.5c-1.1 0-2.1 0.3-3 0.9s-1.3 1.3-1.3 2.4c0 0.2 0 0.5 0.1 0.8s0.2 0.5 0.4 0.8 0.6 0.6 1.1 0.9 1.2 0.6 2 0.9l4.5 1.5c2 0.7 3.5 1.6 4.5 2.7 1 1.2 1.6 2.6 1.6 4.4 0 1.2-0.3 2.3-0.8 3.3s-1.2 1.8-2.1 2.5-1.9 1.2-3 1.6c-1.3 0.5-2.4 0.7-3.6 0.7zm-1.7-24c-0.6 0.1-1.3 0.3-1.8 0.5-1 0.4-1.9 0.9-2.6 1.6s-1.3 1.4-1.7 2.3-0.6 1.8-0.6 2.8c0 0.9 0.1 1.7 0.4 2.3s0.7 1.2 1.1 1.7 0.9 0.8 1.5 1.1c0.5 0.3 1.1 0.5 1.5 0.7l4.3 1.6c1 0.4 1.7 0.7 2.3 1.1s1 0.7 1.3 1.1 0.5 0.8 0.6 1.2 0.1 0.7 0.1 1.1c0 1.1-0.2 2-0.6 2.6s-0.9 1-1.5 1.3c-0.2 0.1-0.5 0.2-0.7 0.3l1.2-0.3c1-0.3 2-0.8 2.8-1.4s1.4-1.4 1.9-2.3 0.7-1.9 0.7-3c0-1.6-0.5-2.9-1.4-3.9s-2.4-1.9-4.2-2.5l-4.5-1.5c-0.9-0.3-1.6-0.7-2.2-1-0.6-0.4-1-0.7-1.3-1.1s-0.5-0.8-0.5-1.1c0.1-0.7 0.1-1.1 0.1-1.3 0-1.3 0.5-2.3 1.6-3 0.7-0.5 1.4-0.8 2.2-0.9zm-5.7 21.8c0.3 0 0.8 0.1 1.4 0.2s1.2 0.3 1.9 0.5l1.2 0.3-0.6-0.3c-0.9-0.5-1.7-1.1-2.3-1.8s-1.2-1.6-1.6-2.5c-0.4-0.8-0.8-1.7-1.2-2.7h-0.1v6.9h0.1c0.1-0.2 0.2-0.4 0.3-0.5 0.2 0 0.5-0.1 0.9-0.1zm14.2-15.6l0.1-5.7h-0.1c-0.1 0.1-0.1 0.2-0.2 0.3-0.2 0.3-0.7 0.4-1 0.4s-0.6-0.1-1-0.2-0.8-0.3-1.3-0.4c-0.5-0.2-1-0.3-1.6-0.4-0.7-0.2-1.4-0.2-2.2-0.2 1.1 0 2.1 0.2 2.9 0.5 0.8 0.4 1.5 0.9 2 1.5s1 1.3 1.4 2.1c0.3 0.6 0.7 1.3 1 2.1z"/>
        	<path fill="#FFFFFF" d="m10.4 80.5v22h3.5v0.7h-13.6v-0.7h3.5v-21.2h-3.5v-0.7h10.1zm-5.9-12.7c0.7-0.7 1.6-1.1 2.6-1.1s1.9 0.4 2.6 1.1 1.1 1.6 1.1 2.6-0.4 1.9-1.1 2.6-1.6 1.1-2.6 1.1-1.9-0.4-2.6-1.1-1.1-1.6-1.1-2.6 0.3-1.9 1.1-2.6z"/>
        	<path fill="#FFFFFF" d="m14.3 103.6h-14.3v-1.5h3.5v-20.4h-3.5v-1.5h10.7v22h3.5v1.4zm-13.6-0.7h12.8-3.5v-22h-9.3 3.5v22h-3.5zm6.4-28.3c-1.1 0-2.1-0.4-2.9-1.2-0.8-0.9-1.2-1.9-1.2-3s0.4-2.1 1.2-2.9 1.8-1.2 2.9-1.2 2.1 0.4 2.9 1.2c0.8 0.8 1.2 1.8 1.2 2.9s-0.4 2.1-1.2 2.9c-0.8 0.8-1.8 1.3-2.9 1.3zm0-7.6c-0.9 0-1.7 0.3-2.4 1s-1 1.5-1 2.4 0.3 1.7 1 2.4c0.7 0.7 1.5 1 2.4 1s1.7-0.3 2.4-1 1-1.5 1-2.4-0.3-1.7-1-2.4c-0.7-0.6-1.4-1-2.4-1z"/>
        	<path fill="#FFFFFF" d="m22.2 102.5v-21.2h-3.5v-0.7h9.8v5.3h0.1c0.1-0.3 0.4-0.8 0.7-1.5 0.4-0.7 0.9-1.3 1.5-1.9 0.7-0.6 1.5-1.2 2.6-1.7s2.4-0.7 4-0.7c2.3 0 4.1 0.7 5.4 2s1.9 3.2 1.9 5.5v14.9h3.5v0.7h-13.1v-0.7h3.3v-16.7c0-1.5-0.3-2.6-0.9-3.3s-1.4-1-2.4-1c-0.8 0-1.7 0.2-2.4 0.6-0.8 0.4-1.5 1-2 1.8-0.6 0.8-1.1 1.8-1.4 3-0.4 1.2-0.5 2.6-0.5 4.2v11.3h3.3v0.7h-13.4v-0.7h3.5z"/>
        	<path fill="#FFFFFF" d="m48.7 103.6h-14v-1.5h3.3v-16.3c0-1.4-0.3-2.4-0.8-3s-1.2-0.9-2.2-0.9c-0.8 0-1.5 0.2-2.3 0.6-0.7 0.4-1.4 1-1.9 1.7-0.6 0.8-1 1.8-1.3 2.9-0.3 1.2-0.5 2.6-0.5 4.1v11h3.3v1.5h-14v-1.5h3.5v-20.5h-3.5v-1.5h10.6v4.3c0-0.1 0.1-0.2 0.2-0.3 0.4-0.7 0.9-1.4 1.6-2 0.7-0.7 1.6-1.2 2.7-1.7s2.5-0.7 4.1-0.7c2.4 0 4.3 0.7 5.7 2.1 1.3 1.4 2 3.3 2 5.8v14.6h3.5v1.3zm-13.3-0.7h12.5-3.5v-15.3c0-2.2-0.6-4-1.8-5.2-1.2-1.3-2.9-1.9-5.2-1.9-1.5 0-2.8 0.2-3.8 0.7-0.6 0.3-1.1 0.5-1.5 0.8 0.1-0.1 0.2-0.1 0.3-0.2 0.8-0.4 1.7-0.7 2.6-0.7 1.1 0 2 0.4 2.7 1.2s1 1.9 1 3.5v17.1h-3.3zm-16.4 0h12.5-3.3v-11.7c0-1.6 0.2-3.1 0.5-4.3 0.4-1.2 0.9-2.3 1.5-3.1 0.1-0.1 0.2-0.2 0.2-0.3-0.3 0.4-0.6 0.8-0.8 1.1-0.3 0.6-0.6 1.1-0.7 1.4l-0.1 0.2h-0.7v-5.3h-9.1 3.5v22h-3.5z"/>
        	<path fill="#FFFFFF" d="m50.8 81.3v-0.7h13.4v0.7h-3.4l5.5 13.7 4.2-11.3-1.1-2.5h-2.7v-0.7h13.2v0.7h-3.5l5.4 13.8 5.1-13.8h-3.7v-0.7h7.1v0.7h-2.6l-8.7 23.4h-0.4l-7.8-19.8-7.4 19.8h-0.4l-9-23.3h-3.2z"/>
        	<path fill="#FFFFFF" d="m79.4 105h-0.9l-7.6-19.1-7.1 19.1h-0.9l-9.2-23.4h-3.2v-1.5h14.2v1.5h-3.3l4.9 12.4 3.8-10.2-0.9-2.1h-2.8v-1.5h14v1.5h-3.4l4.8 12.3 4.6-12.4h-3.5v-1.5h7.9v1.5h-2.8l-8.6 23.4zm-8.5-21.1l8 20.3 8.6-23.2h2.5-6.4 3.9l-5.6 15.2-6-15.2h3.7-12.5 2.6l1.2 2.9-4.6 12.2-6-15.2h3.6-12.7 3l9.1 23.2 7.6-20.2z"/>
        	<path fill="#FFFFFF" d="m100.6 92.3c0 1.3 0.1 2.5 0.2 3.8s0.4 2.5 0.8 3.5c0.5 1 1.1 1.9 2 2.6s2.1 1 3.7 1c1.4 0 2.6-0.3 3.6-0.8s1.8-1.1 2.4-1.8 1.1-1.4 1.4-2c0.3-0.7 0.5-1.2 0.5-1.5l0.7 0.3c-0.2 0.7-0.5 1.4-0.9 2.1-0.4 0.8-1 1.5-1.7 2.1-0.7 0.7-1.7 1.2-2.8 1.6s-2.4 0.7-4 0.7c-1.8 0-3.5-0.3-5.1-0.8s-3-1.3-4.2-2.4c-1.2-1-2.1-2.3-2.8-3.8s-1-3.2-1-5.1c0-1.5 0.3-3 1-4.4 0.6-1.4 1.5-2.7 2.6-3.8s2.4-2 3.9-2.7 3.1-1 4.8-1c1.2 0 2.5 0.2 3.7 0.6s2.3 1 3.3 1.8 1.8 1.9 2.4 3.1c0.6 1.3 1 2.8 1 4.6h-15.6v2.3zm8.5-6.6c0-0.4 0-0.9-0.1-1.4 0-0.6-0.2-1.1-0.4-1.7s-0.6-1-1-1.4c-0.5-0.4-1.1-0.6-2-0.6-1.2 0-2.1 0.3-2.8 0.8-0.7 0.6-1.1 1.3-1.5 2.1-0.3 0.9-0.5 1.8-0.6 2.8s-0.2 2-0.2 2.9h8.5v-3.5z"/>
        	<path fill="#FFFFFF" d="m106.6 104.3c-1.9 0-3.6-0.3-5.3-0.8-1.6-0.6-3.1-1.4-4.3-2.5s-2.2-2.4-2.9-3.9-1-3.3-1-5.3c0-1.6 0.3-3.1 1-4.6s1.6-2.8 2.7-3.9 2.5-2.1 4-2.8c2.6-1.2 5.8-1.4 8.8-0.5 1.3 0.4 2.4 1 3.5 1.9 1 0.8 1.9 1.9 2.5 3.3 0.7 1.3 1 2.9 1 4.8v0.4h-15.6v2c0 1.3 0.1 2.5 0.2 3.8 0.1 1.2 0.4 2.4 0.8 3.4s1.1 1.8 1.9 2.4 2 0.9 3.5 0.9c1.3 0 2.5-0.3 3.4-0.7 0.9-0.5 1.7-1.1 2.3-1.7 0.6-0.7 1-1.3 1.3-1.9 0.4-0.8 0.5-1.2 0.5-1.4l0.1-0.5 1.5 0.5-0.1 0.3c-0.2 0.7-0.5 1.4-0.9 2.2s-1.1 1.5-1.8 2.2c-0.8 0.7-1.7 1.3-2.9 1.7-1.3 0.5-2.6 0.7-4.2 0.7zm-0.8-24.1c-1.7 0-3.2 0.3-4.7 1s-2.7 1.5-3.8 2.6-1.9 2.3-2.5 3.7-0.9 2.8-0.9 4.3c0 1.8 0.3 3.5 1 5 0.6 1.4 1.5 2.7 2.7 3.7 1.1 1 2.5 1.8 4 2.3s3.1 0.8 4.8 0.8c-1.2-0.1-2.2-0.5-2.9-1-0.9-0.7-1.6-1.6-2.1-2.7s-0.8-2.3-0.9-3.6-0.2-2.6-0.2-3.9v-2.7h15.6c0-1.6-0.3-3-0.9-4.1-0.6-1.2-1.4-2.3-2.3-3-0.9-0.8-2-1.4-3.2-1.7-1.3-0.5-2.5-0.7-3.7-0.7zm9.7 17.4c-0.1 0.3-0.2 0.7-0.4 1.1 0.1-0.4 0.3-0.7 0.4-1.1zm-6-8h-9.2v-0.4c0-0.9 0.1-1.9 0.2-2.9s0.3-2 0.6-2.9 0.9-1.7 1.6-2.3 1.7-0.9 3-0.9c0.9 0 1.7 0.2 2.2 0.7 0.5 0.4 0.9 1 1.1 1.6s0.4 1.2 0.4 1.8 0.1 1.1 0.1 1.5v3.8zm-8.5-0.7h7.7v-3.2c0-0.4 0-0.9-0.1-1.4 0-0.5-0.2-1.1-0.3-1.6-0.2-0.5-0.5-0.9-0.9-1.3-0.4-0.3-1-0.5-1.8-0.5-1.1 0-2 0.3-2.5 0.8-0.6 0.5-1.1 1.2-1.3 2-0.3 0.8-0.5 1.7-0.6 2.7-0.1 0.8-0.1 1.7-0.2 2.5z"/>
        	<path fill="#FFFFFF" d="m122.5 95.6c0.4 1 0.9 1.9 1.3 2.9 0.4 0.9 1 1.7 1.6 2.4s1.3 1.3 2.2 1.7c0.8 0.4 1.9 0.7 3.1 0.7 0.3 0 0.7 0 1.3-0.1 0.5 0 1-0.2 1.6-0.4 0.5-0.3 1-0.7 1.3-1.2 0.4-0.5 0.6-1.3 0.6-2.4 0-0.3 0-0.6-0.1-1-0.1-0.3-0.3-0.7-0.6-1-0.3-0.4-0.7-0.7-1.2-1s-1.3-0.7-2.2-1l-4.3-1.6c-0.5-0.2-1-0.4-1.6-0.7s-1.1-0.7-1.6-1.2-0.9-1.1-1.2-1.8-0.5-1.5-0.5-2.5 0.2-2 0.6-2.9 1-1.7 1.8-2.4 1.7-1.2 2.8-1.6 2.2-0.6 3.5-0.6c0.7 0 1.3 0.1 1.9 0.2s1.1 0.3 1.6 0.5 0.9 0.3 1.3 0.5c0.4 0.1 0.7 0.2 0.9 0.2 0.4 0 0.6-0.1 0.7-0.2s0.2-0.3 0.3-0.5h0.7v6.5h-0.7c-0.4-0.8-0.7-1.7-1.1-2.4-0.4-0.8-0.8-1.5-1.3-2-0.5-0.6-1.1-1-1.9-1.4-0.7-0.3-1.7-0.5-2.8-0.5-1.2 0-2.2 0.3-3.2 0.9s-1.5 1.5-1.5 2.7c0 0.2 0 0.5 0.1 0.8s0.2 0.6 0.5 1c0.2 0.3 0.6 0.7 1.2 1 0.5 0.3 1.2 0.7 2.1 1l4.5 1.5c1.9 0.7 3.4 1.6 4.3 2.6 1 1.1 1.5 2.5 1.5 4.2 0 1.2-0.3 2.2-0.8 3.1s-1.2 1.7-2 2.4-1.8 1.2-2.9 1.5c-1.1 0.4-2.2 0.5-3.4 0.5-0.6 0-1.3-0.1-2.1-0.2-0.7-0.1-1.5-0.3-2.1-0.5-0.7-0.2-1.3-0.4-1.9-0.5s-1-0.2-1.3-0.2-0.5 0.1-0.6 0.2-0.2 0.3-0.3 0.6h-0.7v-7.7h0.6z"/>
        	<path fill="#FFFFFF" d="m130.9 104.3c-0.7 0-1.4-0.1-2.1-0.2s-1.5-0.3-2.2-0.5-1.3-0.4-1.9-0.5c-0.5-0.1-1-0.2-1.2-0.2-0.3 0-0.4 0.1-0.4 0.1s-0.1 0.1-0.2 0.4l-0.1 0.2h-1.4v-8.4h1.4l0.1 0.2c0.4 1 0.9 2 1.3 2.8 0.4 0.9 0.9 1.7 1.5 2.4s1.3 1.2 2.1 1.6 1.8 0.6 3 0.6c0.3 0 0.7 0 1.2-0.1 0.5 0 1-0.2 1.4-0.4 0.5-0.2 0.9-0.6 1.2-1.1s0.5-1.2 0.5-2.1c0-0.3 0-0.6-0.1-0.9s-0.2-0.6-0.5-0.9-0.6-0.6-1.1-0.9-1.3-0.7-2.2-1l-4.3-1.6c-0.5-0.2-1.1-0.4-1.6-0.7-0.6-0.3-1.2-0.7-1.7-1.3-0.5-0.5-0.9-1.1-1.3-1.9-0.3-0.7-0.5-1.6-0.5-2.6 0-1.1 0.2-2.1 0.7-3.1 0.4-1 1.1-1.8 1.9-2.5s1.8-1.3 2.9-1.7 2.3-0.6 3.6-0.6c0.7 0 1.4 0.1 2 0.2s1.1 0.3 1.6 0.5 0.9 0.3 1.3 0.5 0.6 0.2 0.7 0.2c0.4 0 0.5-0.1 0.5-0.1 0.1-0.1 0.2-0.2 0.2-0.4l0.1-0.2h1.4v7.2h-1.3l-0.1-0.2c-0.4-0.8-0.7-1.7-1.1-2.4s-0.8-1.4-1.3-2c-0.5-0.5-1.1-1-1.8-1.3s-1.6-0.5-2.6-0.5c-1.1 0-2.1 0.3-3 0.9s-1.3 1.3-1.3 2.4c0 0.2 0 0.5 0.1 0.8s0.2 0.5 0.4 0.8 0.6 0.6 1.1 0.9 1.2 0.6 2 0.9l4.5 1.5c2 0.7 3.5 1.6 4.5 2.7 1 1.2 1.6 2.6 1.6 4.4 0 1.2-0.3 2.3-0.8 3.3s-1.2 1.8-2.1 2.5-1.9 1.2-3 1.6c-1.3 0.5-2.4 0.7-3.6 0.7zm-1.7-24c-0.6 0.1-1.3 0.3-1.9 0.5-1 0.4-1.9 0.9-2.6 1.6-0.7 0.6-1.3 1.4-1.7 2.3s-0.6 1.8-0.6 2.8c0 0.9 0.1 1.7 0.4 2.3s0.7 1.2 1.1 1.7 0.9 0.8 1.5 1.1c0.5 0.3 1.1 0.5 1.5 0.7l4.3 1.6c1 0.4 1.7 0.7 2.3 1.1s1 0.7 1.3 1.1 0.5 0.8 0.6 1.2 0.1 0.7 0.1 1.1c0 1.1-0.2 2-0.6 2.6s-0.9 1-1.5 1.3c-0.2 0.1-0.5 0.2-0.7 0.3l1.2-0.3c1-0.3 2-0.8 2.8-1.4s1.4-1.4 1.9-2.3 0.7-1.9 0.7-3c0-1.6-0.5-2.9-1.4-3.9s-2.4-1.9-4.2-2.5l-4.5-1.5c-0.9-0.3-1.6-0.7-2.2-1-0.6-0.4-1-0.7-1.3-1.1s-0.5-0.8-0.5-1.1c-0.1-0.3-0.1-0.7-0.1-0.9 0-1.3 0.5-2.3 1.6-3 1-0.9 1.7-1.2 2.5-1.3zm-5.8 21.8c0.3 0 0.8 0.1 1.4 0.2s1.2 0.3 1.9 0.5l1.2 0.3-0.6-0.3c-0.9-0.5-1.7-1.1-2.3-1.8s-1.2-1.6-1.6-2.5c-0.4-0.8-0.8-1.7-1.2-2.7h-0.1v6.9h0.1c0.1-0.2 0.2-0.4 0.3-0.5 0.3 0 0.6-0.1 0.9-0.1zm14.3-15.6l0.1-5.7h-0.1c-0.1 0.1-0.1 0.2-0.2 0.3-0.2 0.3-0.7 0.4-1 0.4s-0.6-0.1-1-0.2-0.8-0.3-1.3-0.4c-0.5-0.2-1-0.3-1.6-0.4-0.7-0.2-1.4-0.2-2.2-0.2 1.1 0 2.1 0.2 2.9 0.5 0.8 0.4 1.5 0.9 2 1.5s1 1.3 1.4 2.1c0.3 0.6 0.6 1.4 1 2.1z"/>
        	<path fill="#FFFFFF" d="m150.3 74.2c0.5 0.1 1.1 0.2 1.6 0.2s1.1-0.1 1.6-0.2 1.1-0.3 1.6-0.5v6.8h6.2v0.7h-6.2v17.8c0 0.5 0 1 0.1 1.5s0.2 0.9 0.4 1.2c0.2 0.4 0.5 0.7 0.8 0.9 0.4 0.2 0.9 0.3 1.5 0.3 0.7 0 1.2-0.1 1.7-0.4s0.9-0.6 1.2-1.1c0.4-0.4 0.6-0.9 0.9-1.5 0.2-0.6 0.4-1.1 0.6-1.6l0.8 0.2c-0.2 1.2-0.6 2.2-1.1 2.9s-1.1 1.3-1.7 1.7c-0.7 0.4-1.3 0.6-2.1 0.8s-1.4 0.2-2.1 0.2c-1.8 0-3.3-0.2-4.3-0.6s-1.7-1-2.2-1.6-0.8-1.3-0.8-2.1c-0.1-0.7-0.1-1.4-0.1-2.1v-16.4h-3.5v-0.7h3.5v-6.8c0.5 0.1 1 0.3 1.6 0.4z"/>
        	<path fill="#FFFFFF" d="m156 104.3c-1.9 0-3.4-0.2-4.4-0.7-1.1-0.4-1.9-1-2.4-1.7s-0.8-1.4-0.9-2.3c-0.1-0.7-0.1-1.5-0.1-2.1v-15.8h-3.5v-1.5h3.5v-7l0.5 0.2c0.5 0.2 1 0.4 1.6 0.5 1 0.3 2 0.3 3 0 0.5-0.1 1.1-0.3 1.6-0.5l0.5-0.2v7h6.2v1.5h-6.2v17.3c0 0.5 0 1 0.1 1.4s0.2 0.8 0.4 1.1 0.4 0.5 0.7 0.7 0.7 0.3 1.3 0.3 1.1-0.1 1.5-0.4 0.8-0.6 1.1-1 0.6-0.9 0.8-1.4 0.4-1.1 0.5-1.6l0.1-0.3 1.5 0.3-0.1 0.4c-0.2 1.2-0.6 2.3-1.1 3-0.5 0.8-1.2 1.4-1.9 1.8s-1.4 0.7-2.2 0.8c-0.6 0.1-1.4 0.2-2.1 0.2zm-10.5-23.4h3.5v16.7c0 0.6 0 1.3 0.1 2s0.3 1.3 0.7 1.9 1.1 1.1 2.1 1.5 2.3 0.6 4.1 0.6c0.6 0 1.3-0.1 2.1-0.2 0.3-0.1 0.6-0.1 0.9-0.2-0.3 0.1-0.7 0.1-1.1 0.1-0.7 0-1.2-0.1-1.6-0.4-0.4-0.2-0.8-0.6-1-1s-0.4-0.9-0.4-1.4c-0.1-0.5-0.1-1-0.1-1.5v-18.1h6.2-6.2v-6.7c-0.4 0.1-0.8 0.3-1.2 0.4-1.1 0.3-2.3 0.3-3.4 0-0.4-0.1-0.8-0.2-1.2-0.4v6.7h-3.5zm17.1 17.8c-0.1 0.4-0.3 0.9-0.5 1.4-0.2 0.6-0.6 1.1-0.9 1.6-0.3 0.4-0.7 0.8-1.2 1.1 0 0 0.1 0 0.1-0.1 0.6-0.4 1.2-0.9 1.6-1.6 0.4-0.6 0.7-1.4 1-2.4h-0.1z"/>
        	<path fill="#FFFFFF" d="m184 80.8c1.6 0.7 2.9 1.5 4.1 2.6s2.1 2.4 2.7 3.8c0.7 1.5 1 3 1 4.6 0 1.7-0.3 3.2-1 4.7s-1.6 2.7-2.7 3.8c-1.2 1.1-2.5 2-4.1 2.6s-3.3 1-5.1 1-3.5-0.3-5.1-1c-1.6-0.6-2.9-1.5-4.1-2.6s-2.1-2.4-2.7-3.8c-0.7-1.5-1-3-1-4.7 0-1.6 0.3-3.2 1-4.6 0.7-1.5 1.6-2.7 2.7-3.8 1.2-1.1 2.5-2 4.1-2.6 1.6-0.7 3.3-1 5.1-1s3.5 0.3 5.1 1zm-1.9 21.5c0.8-0.7 1.3-1.5 1.7-2.6s0.6-2.3 0.7-3.7 0.1-2.8 0.1-4.2 0-2.8-0.1-4.2-0.3-2.6-0.7-3.6c-0.4-1.1-0.9-1.9-1.7-2.6s-1.9-1-3.2-1c-1.4 0-2.5 0.3-3.2 1-0.8 0.7-1.3 1.5-1.7 2.6s-0.6 2.3-0.7 3.6c-0.1 1.4-0.1 2.7-0.1 4.2 0 1.4 0 2.8 0.1 4.2s0.3 2.6 0.7 3.7 0.9 1.9 1.7 2.6 1.9 1 3.2 1c1.4 0 2.5-0.4 3.2-1z"/>
        	<path fill="#FFFFFF" d="m178.9 104.3c-1.9 0-3.6-0.3-5.2-1-1.6-0.6-3-1.5-4.2-2.7-1.2-1.1-2.1-2.5-2.8-4s-1-3.1-1-4.8 0.3-3.3 1-4.8 1.6-2.8 2.8-4c1.2-1.1 2.6-2 4.2-2.7s3.4-1 5.2-1 3.6 0.3 5.2 1c1.6 0.7 3 1.6 4.2 2.7s2.1 2.5 2.8 4 1 3.1 1 4.8-0.3 3.3-1 4.8-1.6 2.8-2.8 4c-1.2 1.1-2.6 2-4.2 2.7s-3.3 1-5.2 1zm0-24.1c-1.8 0-3.4 0.3-5 1-1.5 0.6-2.9 1.5-4 2.5-1.1 1.1-2 2.3-2.6 3.7s-0.9 2.9-0.9 4.5 0.3 3.1 0.9 4.5 1.5 2.7 2.6 3.7c1.1 1.1 2.5 1.9 4 2.5 1.2 0.5 2.4 0.8 3.7 0.9-0.9-0.2-1.6-0.5-2.2-1-0.8-0.7-1.4-1.6-1.8-2.7s-0.6-2.3-0.7-3.7-0.1-2.8-0.1-4.2 0-2.8 0.1-4.2 0.3-2.6 0.7-3.7 1-2 1.8-2.7c0.9-0.8 2.1-1.1 3.5-1.1 1.5 0 2.6 0.4 3.5 1.1 0.8 0.7 1.4 1.6 1.8 2.7s0.6 2.3 0.7 3.7 0.1 2.8 0.1 4.2 0 2.8-0.1 4.2-0.3 2.7-0.7 3.7c-0.4 1.1-1 2-1.8 2.7-0.6 0.5-1.3 0.8-2.2 1 1.3-0.1 2.6-0.4 3.7-0.9 1.5-0.6 2.9-1.5 4-2.5 1.1-1.1 2-2.3 2.6-3.7s0.9-2.9 0.9-4.5-0.3-3.1-0.9-4.5-1.5-2.7-2.6-3.7c-1.1-1.1-2.5-1.9-4-2.5-1.5-0.7-3.2-1-5-1zm0 0.7c-1.3 0-2.3 0.3-3 0.9s-1.3 1.4-1.6 2.4c-0.4 1-0.6 2.2-0.7 3.5s-0.1 2.7-0.1 4.1 0 2.8 0.1 4.2c0.1 1.3 0.3 2.5 0.7 3.6 0.3 1 0.9 1.8 1.6 2.4s1.7 0.9 3 0.9 2.3-0.3 3-0.9c0.7-0.6 1.3-1.4 1.6-2.4 0.4-1 0.6-2.2 0.7-3.6s0.1-2.8 0.1-4.2 0-2.8-0.1-4.1-0.3-2.5-0.7-3.5c-0.3-1-0.9-1.8-1.6-2.4s-1.7-0.9-3-0.9z"/>
        	<path fill="#FFFFFF" d="m206.9 80.5v4.5h0.1c0.6-1.3 1.5-2.5 2.6-3.5s2.5-1.5 4.3-1.5c1.5 0 2.7 0.4 3.6 1.2s1.4 1.9 1.4 3.3c0 1.1-0.3 1.9-0.8 2.5s-1.3 0.9-2.5 0.9c-0.8 0-1.6-0.2-2.2-0.5-0.7-0.3-1-1-1-1.9 0-0.1 0-0.3 0.1-0.6 0-0.3 0.1-0.5 0.1-0.8 0.1-0.3 0.1-0.6 0.1-0.8s0.1-0.4 0.1-0.4c0-0.3-0.1-0.5-0.2-0.7s-0.2-0.3-0.3-0.4c-0.2-0.1-0.4-0.2-0.7-0.2-0.4 0-0.8 0.2-1.3 0.5s-1 0.8-1.5 1.5c-0.5 0.6-0.9 1.4-1.2 2.3s-0.5 1.9-0.5 3v13.5h4.2v0.7h-14.1v-0.7h3.4v-21.1h-3.4v-0.7h9.7z"/>
        	<path fill="#FFFFFF" d="m211.6 103.6h-14.8v-1.5h3.4v-20.4h-3.4v-1.5h10.5v3.6c0.6-0.9 1.3-1.8 2.1-2.5 1.1-1 2.7-1.6 4.5-1.6 1.6 0 2.9 0.4 3.8 1.3 1 0.9 1.5 2.1 1.5 3.6 0 1.1-0.3 2.1-0.9 2.7-0.6 0.7-1.5 1-2.7 1-0.9 0-1.7-0.2-2.4-0.5-0.8-0.4-1.2-1.1-1.2-2.2 0-0.1 0-0.3 0.1-0.6 0-0.3 0.1-0.6 0.1-0.9 0.1-0.3 0.1-0.6 0.1-0.8v-0.4c0-0.2-0.1-0.4-0.1-0.5s-0.1-0.2-0.2-0.3-0.3-0.1-0.5-0.1-0.5 0.1-1.1 0.4c-0.5 0.3-1 0.8-1.4 1.4s-0.8 1.3-1.1 2.2-0.5 1.8-0.5 2.9v13.2h4.2v1.5zm-14.1-0.7h13.3-4.2v-13.9c0-1.2 0.2-2.2 0.5-3.2 0.3-0.9 0.8-1.7 1.2-2.4 0.5-0.7 1-1.2 1.6-1.6 1.2-0.7 2-0.7 2.5-0.3 0.2 0.2 0.4 0.3 0.5 0.6 0.1 0.2 0.1 0.4 0.2 0.8 0 0.1 0 0.2-0.1 0.5 0 0.3-0.1 0.5-0.1 0.8-0.1 0.3-0.1 0.6-0.1 0.8v0.5c0 0.8 0.3 1.3 0.8 1.5 0.6 0.3 1.3 0.5 2.1 0.5 1 0 1.7-0.3 2.2-0.8s0.7-1.3 0.7-2.2c0-1.3-0.4-2.3-1.2-3s-2-1.1-3.4-1.1c-1.7 0-3 0.5-4 1.4s-1.9 2.1-2.5 3.4l-0.1 0.2h-0.7v-4.4h-9.1 3.4v22l-3.5-0.1z"/>
        	<path fill="#FFFFFF" d="m244.5 103.7c-0.9 0.1-1.8 0.2-2.6 0.2-1.8 0-3.1-0.3-4-1-0.9-0.6-1.4-1.5-1.6-2.6h-0.1c-0.6 1.4-1.3 2.4-2.3 2.9s-2.4 0.7-4.3 0.7c-0.8 0-1.7-0.1-2.6-0.3s-1.7-0.5-2.4-0.8c-0.7-0.4-1.3-0.9-1.8-1.6s-0.7-1.5-0.7-2.5 0.2-1.9 0.6-2.6 0.9-1.3 1.6-1.7c0.7-0.5 1.4-0.9 2.2-1.2s1.7-0.6 2.6-0.9c1.4-0.4 2.6-0.8 3.5-1.1s1.6-0.6 2.1-1c0.5-0.3 0.8-0.7 1-1.1s0.3-1 0.3-1.6v-3.2c0-1-0.2-1.8-0.7-2.6s-1.3-1.2-2.6-1.2c-0.8 0-1.5 0.2-2.1 0.6s-0.9 1.1-0.9 2c0 0.1 0 0.3 0.1 0.6 0 0.3 0.1 0.6 0.1 0.9s0.1 0.6 0.1 0.9 0.1 0.5 0.1 0.6c0 0.5-0.1 0.9-0.4 1.2-0.2 0.3-0.5 0.5-0.9 0.7-0.3 0.1-0.7 0.2-1.1 0.2h-0.9c-0.4 0-0.7 0-1.1-0.1s-0.7-0.2-1-0.4-0.5-0.5-0.7-0.8c-0.2-0.4-0.3-0.8-0.3-1.4 0-0.9 0.3-1.7 0.8-2.5 0.5-0.7 1.2-1.3 2-1.8s1.8-0.8 2.9-1.1c1.1-0.2 2.2-0.4 3.4-0.4 1.3 0 2.6 0.1 3.8 0.3s2.2 0.6 3.1 1.2 1.6 1.3 2.1 2.3 0.8 2.2 0.8 3.7v13.1c0 0.7 0.1 1.3 0.3 1.8s0.7 0.8 1.5 0.8c0.5 0 0.8-0.1 1.1-0.3s0.6-0.4 0.9-0.7l0.5 0.5c-0.8 0.7-1.5 1.2-2.4 1.3zm-8.7-13.6c-0.1 0.2-0.2 0.4-0.4 0.6s-0.5 0.4-1 0.7c-0.7 0.3-1.3 0.6-2 0.9s-1.3 0.7-1.8 1.1c-0.5 0.5-1 1-1.3 1.7s-0.5 1.5-0.5 2.6c0 0.4 0 0.9 0.1 1.5s0.2 1.1 0.4 1.6c0.2 0.5 0.6 1 1 1.3 0.5 0.4 1.1 0.6 1.9 0.6 0.5 0 0.9-0.1 1.3-0.3s0.8-0.5 1.2-1c0.4-0.4 0.6-1 0.8-1.7s0.3-1.6 0.3-2.6v-7z"/>
        	<path fill="#FFFFFF" d="m241.8 104.3c-1.9 0-3.3-0.3-4.2-1-0.7-0.5-1.2-1.2-1.5-2-0.6 1.1-1.3 1.8-2.1 2.3-1 0.5-2.5 0.8-4.5 0.8-0.9 0-1.8-0.1-2.7-0.3s-1.8-0.5-2.5-0.9c-0.8-0.4-1.4-1-1.9-1.7s-0.7-1.7-0.7-2.7c0-1.1 0.2-2 0.7-2.8 0.4-0.7 1-1.4 1.7-1.9s1.5-0.9 2.3-1.2 1.7-0.6 2.6-0.9c1.5-0.4 2.6-0.8 3.5-1.1s1.5-0.6 2-0.9c0.4-0.3 0.7-0.6 0.9-1s0.3-0.9 0.3-1.5v-3.2c0-0.9-0.2-1.7-0.6-2.4s-1.1-1-2.3-1c-0.7 0-1.4 0.2-1.9 0.5s-0.7 0.9-0.7 1.7v0.5c0 0.3 0.1 0.6 0.1 0.9s0.1 0.6 0.1 0.9 0.1 0.5 0.1 0.6c0 0.6-0.2 1.1-0.5 1.5-0.3 0.3-0.6 0.6-1 0.8s-0.8 0.2-1.2 0.3h-0.9c-0.4 0-0.7 0-1.1-0.1s-0.8-0.2-1.1-0.4-0.6-0.5-0.8-0.9-0.3-0.9-0.3-1.6c0-1 0.3-1.9 0.8-2.7s1.3-1.4 2.2-1.9 1.9-0.9 3-1.1c2.4-0.5 5-0.5 7.3-0.1 1.2 0.2 2.3 0.6 3.2 1.2s1.6 1.4 2.2 2.4c0.5 1 0.8 2.3 0.8 3.8v13.1c0 0.6 0.1 1.2 0.3 1.6 0.1 0.2 0.3 0.5 1.1 0.5 0.4 0 0.7-0.1 1-0.2 0.3-0.2 0.5-0.4 0.8-0.7l0.3-0.3 1 1-0.2 0.3c-0.6 0.8-1.4 1.3-2.4 1.5-1.4 0.2-2.3 0.3-3.2 0.3zm-5.9-4.3h0.6l0.1 0.3c0.2 1 0.7 1.8 1.5 2.4s2.1 0.9 3.8 0.9c0.8 0 1.6-0.1 2.6-0.2 0.7-0.1 1.2-0.4 1.6-0.8-0.2 0.2-0.4 0.3-0.6 0.4-0.4 0.2-0.8 0.3-1.3 0.3-1.2 0-1.6-0.5-1.8-1s-0.3-1.2-0.3-1.9v-13.1c0-1.4-0.2-2.6-0.7-3.5s-1.1-1.6-1.9-2.2c-0.8-0.5-1.8-0.9-2.9-1.1-2.2-0.4-4.7-0.5-7 0-1 0.2-2 0.6-2.8 1s-1.4 1-1.9 1.7-0.7 1.4-0.7 2.2c0 0.5 0.1 1 0.2 1.3 0.2 0.3 0.4 0.5 0.6 0.7s0.5 0.3 0.8 0.3c0.4 0.1 0.7 0.1 1 0.1h0.9c0.3 0 0.6-0.1 0.9-0.2s0.5-0.3 0.7-0.6c0.2-0.2 0.3-0.6 0.3-1 0-0.1 0-0.3-0.1-0.5 0-0.3-0.1-0.6-0.1-0.9s-0.1-0.6-0.1-0.9-0.1-0.5-0.1-0.6c0-1.1 0.4-1.9 1.1-2.4 0.7-0.4 1.4-0.6 2.3-0.6 1.4 0 2.4 0.5 2.9 1.3s0.7 1.8 0.7 2.8v3.2c0 0.7-0.1 1.3-0.3 1.8-0.1 0.1-0.2 0.3-0.3 0.4h0.6v7.4c0 1.1-0.1 2-0.3 2.7v0.3zm-0.5-9.9c-0.2 0.2-0.4 0.4-0.6 0.5-0.5 0.4-1.3 0.7-2.2 1s-2.1 0.7-3.5 1.1c-0.9 0.3-1.7 0.6-2.5 0.9s-1.5 0.7-2.1 1.1-1.1 1-1.5 1.6-0.6 1.4-0.6 2.4c0 0.9 0.2 1.7 0.6 2.3s1 1.1 1.7 1.5 1.5 0.6 2.3 0.8c0.9 0.2 1.7 0.3 2.5 0.3 1.8 0 3.2-0.2 4.1-0.7 0.2-0.1 0.4-0.2 0.6-0.4-0.2 0.1-0.3 0.2-0.5 0.3-0.5 0.2-1 0.4-1.5 0.4-0.9 0-1.6-0.2-2.1-0.6s-0.9-0.9-1.1-1.5-0.4-1.1-0.5-1.8c-0.1-0.6-0.1-1.1-0.1-1.5 0-1.1 0.2-2 0.5-2.8 0.4-0.7 0.8-1.3 1.4-1.8s1.2-0.9 1.9-1.2 1.3-0.6 2-0.9c0.6-0.3 0.8-0.5 0.9-0.6 0.2-0.2 0.3-0.3 0.3-0.4zm0.1 1c-0.2 0.2-0.6 0.4-1 0.6-0.7 0.3-1.4 0.6-2 0.9s-1.2 0.6-1.7 1.1c-0.5 0.4-0.9 1-1.2 1.6s-0.5 1.4-0.5 2.4c0 0.4 0 0.9 0.1 1.4 0 0.5 0.2 1 0.4 1.5s0.5 0.9 0.9 1.2 1 0.5 1.7 0.5c0.4 0 0.8-0.1 1.2-0.3s0.7-0.5 1.1-0.9c0.3-0.4 0.6-0.9 0.8-1.6s0.3-1.5 0.3-2.5v-5.9z"/>
        	<polygon fill="#3197DE" points="130.7 25.6 130.7 0.5 128.3 0.5 128.3 25.6 122.3 25.6 122.3 47.8 128.6 48.8 128.6 56.9 130.5 56.9 130.5 48.8 136.8 47.8 136.8 25.6"/>
        	<polygon fill="#3197DE" points="130.7 52 130.7 72 128.3 72 128.3 52 122.3 52 122.3 26.3 128.6 26.3 128.6 8.4 130.5 8.4 130.5 26.3 136.8 26.3 136.8 52"/>
        	<polygon fill="#3197DE" points="166.5 15 163.9 15 163.9 33.4 158 33.4 158 58.1 163.9 58.1 163.9 75 166.5 75 166.5 58.1 172.5 58.1 172.5 33.4 166.5 33.4"/>
        	<polygon fill="#3197DE" points="202.1 0 199.5 0 199.5 12.4 193.6 12.4 193.6 53.3 199.5 53.3 199.5 68.6 202.1 68.6 202.1 53.3 208.1 53.3 208.1 12.4 202.1 12.4"/>
        </g>
    </symbol>

    <!-- Background map -->
    <symbol id="background-map" viewBox="0 0 1000 576.3">
        <title>Tlo mapa</title>
        <path d="m349.9 28h7v7h-7v-7zm0-2.4h7v-7h-7v7zm0 18.7h7v-7h-7v7zm0-28h7v-7h-7v7zm9.5 65.3h7v-7h-7v7zm-9.5-74.6h7v-7h-7v7zm9.5 65.3h7v-7h-7v7zm0-9.3h7v-7h-7v7zm0 242.6h7v-7h-7v7zm-9.5-252h7v-7h-7v7zm-9.4-28h7v-7h-7v7zm0 9.4h7v-7h-7v7zm0-18.7h7v-7h-7v7zm0 28h7v-7h-7v7zm0-37.3h7v-7h-7v7zm9.4 65.3h7v-7h-7v7zm0 9.3h7v-7h-7v7zm0-18.6h7v-7h-7v7zm18.9-9.4h7v-7h-7v7zm0-18.6h7v-7h-7v7zm0 9.3h7v-7h-7v7zm-28.3 9.3h7v-7h-7v7zm28.3-28h7v-7h-7v7zm0-9.3h7v-7h-7v7zm9.5 84h7v-7h-7v7zm-9.5-37.3h7v-7h-7v7zm9.5-9.4h7v-7h-7v7zm0 56h7v-7h-7v7zm-9.5-28h7v-7h-7v7zm-9.4-65.3h7v-7h-7v7zm0 18.7h7v-7h-7v7zm0-9.4h7v-7h-7v7zm0 28h7v-7h-7v7zm0-9.3h7v-7h-7v7zm0-37.3h7v-7h-7v7zm9.4 102.6h7v-7h-7v7zm0 205.4h7v-7h-7v7zm-28.3-242.7h7v-7h-7v7zm-19 326.7h7v-7h-7v7zm0-345.4h7v-7h-7v7zm0 336h7v-7h-7v7zm0 177.4h7v-7h-7v7zm0-494.7h7v-7h-7v7zm19-9.3h7v-7h-7v7zm-19 28h7v-7h-7v7zm0-28h7v-7h-7v7zm0 18.6h7v-7h-7v7zm0 18.7h7v-7h-7v7zm-9.4-37.3h7v-7h-7v7zm0 9.3h7v-7h-7v7zm0 9.3h7v-7h-7v7zm0-28h7v-7h-7v7zm0-28h7v-7h-7v7zm0-9.3h7v-7h-7v7zm0 28h7v-7h-7v7zm0-9.3h7v-7h-7v7zm0-28h7v-7h-7v7zm18.9 28h7v-7h-7v7zm0-9.4h7v-7h-7v7zm0 28h7v-7h-7v7zm0-9.3h7v-7h-7v7zm0-28h7v-7h-7v7zm9.5 65.3h7v-7h-7v7zm0 9.4h7v-7h-7v7zm-9.5-84h7v-7h-7v7zm0 74.6h7v-7h-7v7zm0-18.6h7v-7h-7v7zm-9.5-46.7h7v-7h-7v7zm0 9.3h7v-7h-7v7zm0 9.4h7v-7h-7v7zm0-28h7v-7h-7v7zm9.5 65.3h7v-7h-7v7zm0 18.7h7v-7h-7v7zm-9.5-46.7h7v-7h-7v7zm75.7 242.7h7v-7h-7v7zm18.9 46.6h7v-7h-7v7zm0-112h7v-7h-7v7zm0-9.3h7v-7h-7v7zm0 28h7v-7h-7v7zm0-102.7h7v-7h-7v7zm0 112h7v-7h-7v7zm0-93.3h7v-7h-7v7zm0 46.7h7v-7h-7v7zm0-37.4h7v-7h-7v7zm0 102.7h7v-7h-7v7zm0 37.3h7v-7h-7v7zm0-9.3h7v-7h-7v7zm0 18.7h7v-7h-7v7zm0 9.3h7v-7h-7v7zm0-65.3h7v-7h-7v7zm0 28h7v-7h-7v7zm9.5 56h7v-7h-7v7zm-9.5-65.4h7v-7h-7v7zm0-46.6h7v-7h-7v7zm9.5-9.4h7v-7h-7v7zm0-18.6h7v-7h-7v7zm0 9.3h7v-7h-7v7zm0 28h7v-7h-7v7zm0 9.3h7v-7h-7v7zm0-93.3h7v-7h-7v7zm0 9.3h7v-7h-7v7zm0 9.4h7v-7h-7v7zm0 9.3h7v-7h-7v7zm0 84h7v-7h-7v7zm0 46.7h7v-7h-7v7zm0-18.7h7v-7h-7v7zm0 9.3h7v-7h-7v7zm0-46.6h7v-7h-7v7zm0 65.3h7v-7h-7v7zm0 9.3h7v-7h-7v7zm0-46.6h7v-7h-7v7zm0-9.4h7v-7h-7v7zm-18.9-18.6h7v-7h-7v7zm-9.5 74.6h7v-7h-7v7zm0-9.3h7v-7h-7v7zm-9.4-308h7v-7h-7v7zm28.3 326.7h7v-7h-7v7zm-28.3-242.7h7v-7h-7v7zm9.4 177.3h7v-7h-7v7zm-85.1-186.6h7v-7h-7v7zm85.1 205.3h7v-7h-7v7zm0 9.3h7v-7h-7v7zm-9.4-196h7v-7h-7v7zm0 186.7h7v-7h-7v7zm0 9.3h7v-7h-7v7zm9.4-37.3h7v-7h-7v7zm-18.9-252h7v-7h-7v7zm9.5 298.7h7v-7h-7v7zm0-56h7v-7h-7v7zm0 28h7v-7h-7v7zm0-9.4h7v-7h-7v7zm9.4 37.4h7v-7h-7v7zm9.5-102.7h7v-7h-7v7zm0-9.3h7v-7h-7v7zm0 18.6h7v-7h-7v7zm-28.4-196h7v-7h-7v7zm28.4 317.4h7v-7h-7v7zm0-177.4h7v-7h-7v7zm0-46.6h7v-7h-7v7zm0 37.3h7v-7h-7v7zm0 93.3h7v-7h-7v7zm0 18.7h7v-7h-7v7zm0 56h7v-7h-7v7zm0 9.3h7v-7h-7v7zm0-28h7v-7h-7v7zm0 9.4h7v-7h-7v7zm0-37.4h7v-7h-7v7zm0 18.7h7v-7h-7v7zm0-9.3h7v-7h-7v7zm-151.4 270.6h7v-7h-7v7zm9.5-522.6h7v-7h-7v7zm0-9.4h7v-7h-7v7zm0-9.3h7v-7h-7v7zm0 28h7v-7h-7v7zm9.5 420h7v-7h-7v7zm0-9.3h7v-7h-7v7zm0-9.4h7v-7h-7v7zm-9.5-392h7v-7h-7v7zm9.5 420h7v-7h-7v7zm-9.5-74.6h7v-7h-7v7zm0-18.7h7v-7h-7v7zm0 9.3h7v-7h-7v7zm9.5 46.7h7v-7h-7v7zm-9.5-65.3h7v-7h-7v7zm0-18.7h7v-7h-7v7zm0-168h7v-7h-7v7zm0-18.7h7v-7h-7v7zm0 196h7v-7h-7v7zm9.5 18.7h7v-7h-7v7zm0-289.3h7v-7h-7v7zm0-9.4h7v-7h-7v7zm0 18.7h7v-7h-7v7zm0 84h7v-7h-7v7zm0-112h7v-7h-7v7zm0-37.3h7v-7h-7v7zm0-9.4h7v-7h-7v7zm0 18.7h7v-7h-7v7zm0 18.7h7v-7h-7v7zm0-46.7h7v-7h-7v7zm0 392h7v-7h-7v7zm0-18.7h7v-7h-7v7zm0 9.4h7v-7h-7v7zm0 18.6h7v-7h-7v7zm0-46.6h7v-7h-7v7zm0-9.4h7v-7h-7v7zm0-9.3h7v-7h-7v7zm0 74.7h7v-7h-7v7zm-9.5-18.7h7v-7h-7v7zm-9.5 0h7v-7h-7v7zm9.5 9.3h7v-7h-7v7zm-9.5-18.6h7v-7h-7v7zm0 28h7v-7h-7v7zm0-46.7h7v-7h-7v7zm56.8-280h7v-7h-7v7zm-56.8 252h7v-7h-7v7zm0 9.3h7v-7h-7v7zm0 74.7h7v-7h-7v7zm0-46.7h7v-7h-7v7zm0 112h7v-7h-7v7zm0-18.6h7v-7h-7v7zm0 9.3h7v-7h-7v7zm170.3-345.3h7v-7h-7v7zm-170.3 317.3h7v-7h-7v7zm0 9.3h7v-7h-7v7zm0-18.6h7v-7h-7v7zm0-9.4h7v-7h-7v7zm0-28h7v-7h-7v7zm9.5 56h7v-7h-7v7zm0-18.6h7v-7h-7v7zm0 9.3h7v-7h-7v7zm0 18.7h7v-7h-7v7zm0-56h7v-7h-7v7zm-9.5-410.7h7v-7h-7v7zm9.5 420h7v-7h-7v7zm-9.5-93.3h7v-7h-7v7zm9.5 102.6h7v-7h-7v7zm-9.5-270.6h7v-7h-7v7zm0 18.6h7v-7h-7v7zm0-9.3h7v-7h-7v7zm0 130.7h7v-7h-7v7zm0-289.4h7v-7h-7v7zm0 9.4h7v-7h-7v7zm0 130.6h7v-7h-7v7zm0-121.3h7v-7h-7v7zm0 326.7h7v-7h-7v7zm47.3 46.6h7v-7h-7v7zm0 9.4h7v-7h-7v7zm0-18.7h7v-7h-7v7zm0 28h7v-7h-7v7zm0-46.7h7v-7h-7v7zm0-9.3h7v-7h-7v7zm0 18.7h7v-7h-7v7zm0-270.7h7v-7h-7v7zm-9.4-121.3h7v-7h-7v7zm0 56h7v-7h-7v7zm0-9.4h7v-7h-7v7zm0 18.7h7v-7h-7v7zm9.4 46.7h7v-7h-7v7zm-9.4-37.4h7v-7h-7v7zm0-56h7v-7h-7v7zm0-9.3h7v-7h-7v7zm0 74.7h7v-7h-7v7zm0-46.7h7v-7h-7v7zm0-9.3h7v-7h-7v7zm18.9 373.3h7v-7h-7v7zm0 9.3h7v-7h-7v7zm-9.5-410.6h7v-7h-7v7zm0 9.3h7v-7h-7v7zm9.5 373.3h7v-7h-7v7zm0-9.3h7v-7h-7v7zm0 18.7h7v-7h-7v7zm-9.5-373.4h7v-7h-7v7zm0 18.7h7v-7h-7v7zm0-9.3h7v-7h-7v7zm0 46.6h7v-7h-7v7zm0-9.3h7v-7h-7v7zm0 28h7v-7h-7v7zm0-9.3h7v-7h-7v7zm0 18.6h7v-7h-7v7zm0-46.6h7v-7h-7v7zm0-9.4h7v-7h-7v7zm-18.9 401.4h7v-7h-7v7zm0-345.4h7v-7h-7v7zm0 261.4h7v-7h-7v7zm0-252h7v-7h-7v7zm0 242.6h7v-7h-7v7zm0-261.3h7v-7h-7v7zm0-9.3h7v-7h-7v7zm0-28h7v-7h-7v7zm9.5 37.3h7v-7h-7v7zm-9.5-18.7h7v-7h-7v7zm0-28h7v-7h-7v7zm0 364h7v-7h-7v7zm0 9.4h7v-7h-7v7zm0 9.3h7v-7h-7v7zm0 9.3h7v-7h-7v7zm0-65.3h7v-7h-7v7zm0 28h7v-7h-7v7zm0-18.7h7v-7h-7v7zm0 9.4h7v-7h-7v7zm0-326.7h7v-7h-7v7zm9.5 317.3h7v-7h-7v7zm0-9.3h7v-7h-7v7zm0 28h7v-7h-7v7zm0-9.3h7v-7h-7v7zm0-28h7v-7h-7v7zm0-242.7h7v-7h-7v7zm0-18.7h7v-7h-7v7zm0 9.4h7v-7h-7v7zm-9.5-93.4h7v-7h-7v7zm0-18.6h7v-7h-7v7zm0 37.3h7v-7h-7v7zm0-28h7v-7h-7v7zm0 18.7h7v-7h-7v7zm9.5 392h7v-7h-7v7zm0-9.4h7v-7h-7v7zm0 28h7v-7h-7v7zm0-9.3h7v-7h-7v7zm189.1-233.3h7v-7h-7v7zm18.9-18.7h7v-7h-7v7zm0 233.3h7v-7h-7v7zm0 9.4h7v-7h-7v7zm0 18.6h7v-7h-7v7zm0-9.3h7v-7h-7v7zm0-46.7h7v-7h-7v7zm0-9.3h7v-7h-7v7zm0 18.7h7v-7h-7v7zm0-28h7v-7h-7v7zm0 37.3h7v-7h-7v7zm-9.4-373.3h7v-7h-7v7zm0 18.6h7v-7h-7v7zm0 37.4h7v-7h-7v7zm0 9.3h7v-7h-7v7zm9.4 373.3h7v-7h-7v7zm0-9.3h7v-7h-7v7zm-9.4-438.7h7v-7h-7v7zm9.4 457.4h7v-7h-7v7zm-9.4-373.4h7v-7h-7v7zm9.4 121.4h7v-7h-7v7zm0 18.6h7v-7h-7v7zm0 9.4h7v-7h-7v7zm0 9.3h7v-7h-7v7zm0 9.3h7v-7h-7v7zm0-74.6h7v-7h-7v7zm0 18.6h7v-7h-7v7zm0-28h7v-7h-7v7zm0 18.7h7v-7h-7v7zm0 84h7v-7h-7v7zm0 28h7v-7h-7v7zm0 18.7h7v-7h-7v7zm0-9.4h7v-7h-7v7zm0-46.6h7v-7h-7v7zm0 65.3h7v-7h-7v7zm0 9.3h7v-7h-7v7zm0-46.6h7v-7h-7v7zm0-9.4h7v-7h-7v7zm0 149.4h7v-7h-7v7zm-9.4-46.7h7v-7h-7v7zm0-9.3h7v-7h-7v7zm0 18.6h7v-7h-7v7zm0 9.4h7v-7h-7v7zm0-56h7v-7h-7v7zm0-9.4h7v-7h-7v7zm0 74.7h7v-7h-7v7zm0-46.7h7v-7h-7v7zm-9.5-298.6h7v-7h-7v7zm0-56h7v-7h-7v7zm0-9.4h7v-7h-7v7zm9.5 326.7h7v-7h-7v7zm0 130.7h7v-7h-7v7zm-9.5-438.7h7v-7h-7v7zm9.5 410.7h7v-7h-7v7zm0-9.4h7v-7h-7v7zm0 18.7h7v-7h-7v7zm0 9.3h7v-7h-7v7zm0-140h7v-7h-7v7zm0-149.3h7v-7h-7v7zm0 9.3h7v-7h-7v7zm0 65.4h7v-7h-7v7zm0-46.7h7v-7h-7v7zm0-9.3h7v-7h-7v7zm0-46.7h7v-7h-7v7zm0 18.7h7v-7h-7v7zm0-9.4h7v-7h-7v7zm0 121.4h7v-7h-7v7zm0 28h7v-7h-7v7zm0-9.4h7v-7h-7v7zm0 18.7h7v-7h-7v7zm0-177.3h7v-7h-7v7zm0 149.3h7v-7h-7v7zm0-18.7h7v-7h-7v7zm0-9.3h7v-7h-7v7zm0 74.7h7v-7h-7v7zm0 37.3h7v-7h-7v7zm18.9-280h7v-7h-7v7zm0-18.7h7v-7h-7v7zm0 9.4h7v-7h-7v7zm0 18.6h7v-7h-7v7zm0 9.4h7v-7h-7v7zm9.5 345.3h7v-7h-7v7zm0-18.7h7v-7h-7v7zm-9.5-420h7v-7h-7v7zm9.5 448h7v-7h-7v7zm0-18.6h7v-7h-7v7zm-9.5-270.7h7v-7h-7v7zm0 18.7h7v-7h-7v7zm0-74.7h7v-7h-7v7zm0 37.3h7v-7h-7v7zm0 28h7v-7h-7v7zm0-56h7v-7h-7v7zm0 18.7h7v-7h-7v7zm0-9.3h7v-7h-7v7zm0 28h7v-7h-7v7zm9.5 177.3h7v-7h-7v7zm0-28h7v-7h-7v7zm-94.6-186.7h7v-7h-7v7zm94.6 177.4h7v-7h-7v7zm0 18.6h7v-7h-7v7zm0-46.6h7v-7h-7v7zm0-9.4h7v-7h-7v7zm0 28h7v-7h-7v7zm0-9.3h7v-7h-7v7zm0 130.7h7v-7h-7v7zm0-18.7h7v-7h-7v7zm0-9.3h7v-7h-7v7zm0 18.6h7v-7h-7v7zm0 18.7h7v-7h-7v7zm0-56h7v-7h-7v7zm0 9.3h7v-7h-7v7zm0-18.6h7v-7h-7v7zm0-9.4h7v-7h-7v7zm-9.5-93.3h7v-7h-7v7zm0 205.3h7v-7h-7v7zm0 9.4h7v-7h-7v7zm-9.5-457.4h7v-7h-7v7zm9.5 438.7h7v-7h-7v7zm0-28h7v-7h-7v7zm0-9.3h7v-7h-7v7zm-9.5-382.7h7v-7h-7v7zm9.5 410.7h7v-7h-7v7zm0-37.4h7v-7h-7v7zm0 28h7v-7h-7v7zm-9.5-298.6h7v-7h-7v7zm0 9.3h7v-7h-7v7zm0-28h7v-7h-7v7zm0 37.3h7v-7h-7v7zm0-65.3h7v-7h-7v7zm0-9.3h7v-7h-7v7zm0-9.4h7v-7h-7v7zm0 37.4h7v-7h-7v7zm9.5 289.3h7v-7h-7v7zm0-196h7v-7h-7v7zm0 93.3h7v-7h-7v7zm0-9.3h7v-7h-7v7zm0 18.7h7v-7h-7v7zm0-28h7v-7h-7v7zm0-28h7v-7h-7v7zm-9.5-84h7v-7h-7v7zm9.5 102.6h7v-7h-7v7zm0 46.7h7v-7h-7v7zm0 56h7v-7h-7v7zm0 9.3h7v-7h-7v7zm0 9.4h7v-7h-7v7zm0-28h7v-7h-7v7zm0-37.4h7v-7h-7v7zm0 9.4h7v-7h-7v7zm0 18.6h7v-7h-7v7zm0-9.3h7v-7h-7v7zm9.5-9.3h7v-7h-7v7zm-66.2-140h7v-7h-7v7zm0 37.3h7v-7h-7v7zm0-9.3h7v-7h-7v7zm0 18.6h7v-7h-7v7zm0 9.4h7v-7h-7v7zm0-65.4h7v-7h-7v7zm0-18.6h7v-7h-7v7zm0-9.4h7v-7h-7v7zm0 177.4h7v-7h-7v7zm0-158.7h7v-7h-7v7zm0 121.3h7v-7h-7v7zm0 18.7h7v-7h-7v7zm0-9.3h7v-7h-7v7zm0 18.6h7v-7h-7v7zm0-46.6h7v-7h-7v7zm0-9.4h7v-7h-7v7zm0-9.3h7v-7h-7v7zm0 28h7v-7h-7v7zm0-168h7v-7h-7v7zm9.4 140h7v-7h-7v7zm0-9.3h7v-7h-7v7zm0 18.6h7v-7h-7v7zm0-28h7v-7h-7v7zm0-46.6h7v-7h-7v7zm0-9.4h7v-7h-7v7zm0 46.7h7v-7h-7v7zm0 46.7h7v-7h-7v7zm0-74.7h7v-7h-7v7zm0 121.3h7v-7h-7v7zm0 37.4h7v-7h-7v7zm0-28h7v-7h-7v7zm0 9.3h7v-7h-7v7zm0 9.3h7v-7h-7v7zm0-46.6h7v-7h-7v7zm0-9.4h7v-7h-7v7zm0 18.7h7v-7h-7v7zm0-28h7v-7h-7v7zm-18.9-37.3h7v-7h-7v7zm-9.5-18.7h7v-7h-7v7zm0 9.3h7v-7h-7v7zm19 112h7v-7h-7v7zm-19-130.6h7v-7h-7v7zm0-46.7h7v-7h-7v7zm0 84h7v-7h-7v7zm0-74.7h7v-7h-7v7zm0 18.7h7v-7h-7v7zm0-9.3h7v-7h-7v7zm-9.4-74.7h7v-7h-7v7zm9.4 186.7h7v-7h-7v7zm0 18.6h7v-7h-7v7zm0-9.3h7v-7h-7v7zm0-149.3h7v-7h-7v7zm0 130.6h7v-7h-7v7zm0-18.6h7v-7h-7v7zm0 9.3h7v-7h-7v7zm0-18.7h7v-7h-7v7zm0-18.6h7v-7h-7v7zm9.5-28h7v-7h-7v7zm0-28h7v-7h-7v7zm0 46.6h7v-7h-7v7zm0-9.3h7v-7h-7v7zm0-18.7h7v-7h-7v7zm0-46.6h7v-7h-7v7zm0 9.3h7v-7h-7v7zm0 9.3h7v-7h-7v7zm18.9-9.3h7v-7h-7v7zm-18.9 121.3h7v-7h-7v7zm0 9.4h7v-7h-7v7zm0-18.7h7v-7h-7v7zm0 28h7v-7h-7v7zm0 9.3h7v-7h-7v7zm0-65.3h7v-7h-7v7zm0 18.7h7v-7h-7v7zm0-9.4h7v-7h-7v7zm37.8 56h7v-7h-7v7zm-9.4-224h7v-7h-7v7zm9.4 289.4h7v-7h-7v7zm0-18.7h7v-7h-7v7zm0 28h7v-7h-7v7zm0-37.3h7v-7h-7v7zm0 46.6h7v-7h-7v7zm0-65.3h7v-7h-7v7zm0-9.3h7v-7h-7v7zm0 18.6h7v-7h-7v7zm-9.4-261.3h7v-7h-7v7zm9.4 364h7v-7h-7v7zm-9.4-438.7h7v-7h-7v7zm0 9.4h7v-7h-7v7zm9.4 65.3h7v-7h-7v7zm0 326.7h7v-7h-7v7zm0 9.3h7v-7h-7v7zm0 18.7h7v-7h-7v7zm0-9.4h7v-7h-7v7zm0-56h7v-7h-7v7zm0-214.6h7v-7h-7v7zm0-9.4h7v-7h-7v7zm0 18.7h7v-7h-7v7zm0-37.3h7v-7h-7v7zm0 46.6h7v-7h-7v7zm0-56h7v-7h-7v7zm0-28h7v-7h-7v7zm0 9.4h7v-7h-7v7zm0 9.3h7v-7h-7v7zm0 177.3h7v-7h-7v7zm0 18.7h7v-7h-7v7zm0-28h7v-7h-7v7zm0-9.3h7v-7h-7v7zm0 28h7v-7h-7v7zm0-56h7v-7h-7v7zm-236.4-233.4h7v-7h-7v7zm236.4 242.7h7v-7h-7v7zm0 9.3h7v-7h-7v7zm-9.4 74.7h7v-7h-7v7zm0 28h7v-7h-7v7zm0 9.3h7v-7h-7v7zm0 9.4h7v-7h-7v7zm0 18.6h7v-7h-7v7zm0-46.6h7v-7h-7v7zm0-9.4h7v-7h-7v7zm0-18.6h7v-7h-7v7zm0-9.4h7v-7h-7v7zm-9.5-158.6h7v-7h-7v7zm0-9.4h7v-7h-7v7zm0-46.6h7v-7h-7v7zm0 18.6h7v-7h-7v7zm9.5 289.4h7v-7h-7v7zm0-102.7h7v-7h-7v7zm-9.5-196h7v-7h-7v7zm9.5 308h7v-7h-7v7zm0 9.3h7v-7h-7v7zm-9.5-410.6h7v-7h-7v7zm9.5 224h7v-7h-7v7zm0-93.4h7v-7h-7v7zm0 9.4h7v-7h-7v7zm0 9.3h7v-7h-7v7zm0 130.7h7v-7h-7v7zm0-177.4h7v-7h-7v7zm0-9.3h7v-7h-7v7zm0 84h7v-7h-7v7zm0-65.3h7v-7h-7v7zm0 46.6h7v-7h-7v7zm0 84h7v-7h-7v7zm0 9.4h7v-7h-7v7zm0-56h7v-7h-7v7zm0 74.6h7v-7h-7v7zm0-9.3h7v-7h-7v7zm0-46.7h7v-7h-7v7zm0-130.6h7v-7h-7v7zm0 149.3h7v-7h-7v7zm-227 74.7h7v-7h-7v7zm-123-186.7h7v-7h-7v7zm37.9 9.3h7v-7h-7v7zm-37.9 0h7v-7h-7v7zm0 9.4h7v-7h-7v7zm0-65.4h7v-7h-7v7zm0-9.3h7v-7h-7v7zm0 168h7v-7h-7v7zm0-84h7v-7h-7v7zm0-56h7v-7h-7v7zm0 9.3h7v-7h-7v7zm0 93.4h7v-7h-7v7zm0 9.3h7v-7h-7v7zm0 9.3h7v-7h-7v7zm0 9.4h7v-7h-7v7zm0-56h7v-7h-7v7zm0-9.4h7v-7h-7v7zm0 18.7h7v-7h-7v7zm0 9.3h7v-7h-7v7zm0-102.6h7v-7h-7v7zm9.5 102.6h7v-7h-7v7zm0-9.3h7v-7h-7v7zm-9.5-121.3h7v-7h-7v7zm9.5 149.3h7v-7h-7v7zm0-37.3h7v-7h-7v7zm0-28h7v-7h-7v7zm0 9.3h7v-7h-7v7zm0 65.3h7v-7h-7v7zm0-56h7v-7h-7v7zm0 37.4h7v-7h-7v7zm-9.5-177.4h7v-7h-7v7zm9.5 242.7h7v-7h-7v7zm-9.5-261.3h7v-7h-7v7zm9.5 224h7v-7h-7v7zm-9.5-177.4h7v-7h-7v7zm9.5 186.7h7v-7h-7v7zm0 18.7h7v-7h-7v7zm0-121.4h7v-7h-7v7zm0 112h7v-7h-7v7zm-18.9-37.3h7v-7h-7v7zm0-56h7v-7h-7v7zm0 65.3h7v-7h-7v7zm0 9.4h7v-7h-7v7zm0-46.7h7v-7h-7v7zm0 9.3h7v-7h-7v7zm0-28h7v-7h-7v7zm0 9.4h7v-7h-7v7zm0 65.3h7v-7h-7v7zm0-37.3h7v-7h-7v7zm-9.5-149.4h7v-7h-7v7zm0 18.7h7v-7h-7v7zm0 9.3h7v-7h-7v7zm9.5 168h7v-7h-7v7zm-9.5-158.6h7v-7h-7v7zm0-84h7v-7h-7v7zm0 37.3h7v-7h-7v7zm0-18.7h7v-7h-7v7zm9.5 0h7v-7h-7v7zm0 18.7h7v-7h-7v7zm9.4 205.3h7v-7h-7v7zm-9.4-214.6h7v-7h-7v7zm0 112h7v-7h-7v7zm0-84h7v-7h-7v7zm9.4 196h7v-7h-7v7zm0 168h7v-7h-7v7zm0-158.7h7v-7h-7v7zm-9.4-214.7h7v-7h-7v7zm0 74.7h7v-7h-7v7zm0-9.3h7v-7h-7v7zm0 18.6h7v-7h-7v7zm0-28h7v-7h-7v7zm0-9.3h7v-7h-7v7zm0-28h7v-7h-7v7zm0 9.3h7v-7h-7v7zm0 9.4h7v-7h-7v7zm18.9 37.3h7v-7h-7v7zm18.9 18.7h7v-7h-7v7zm0-9.4h7v-7h-7v7zm0 18.7h7v-7h-7v7zm0-28h7v-7h-7v7zm0-9.3h7v-7h-7v7zm0-46.7h7v-7h-7v7zm0-9.3h7v-7h-7v7zm0 28h7v-7h-7v7zm0 74.6h7v-7h-7v7zm0-84h7v-7h-7v7zm0 149.4h7v-7h-7v7zm0-9.4h7v-7h-7v7zm-47.3-121.3h7v-7h-7v7zm47.3 112h7v-7h-7v7zm0-28h7v-7h-7v7zm0-9.3h7v-7h-7v7zm0 28h7v-7h-7v7zm0-9.4h7v-7h-7v7zm9.5 28h7v-7h-7v7zm0-18.6h7v-7h-7v7zm0-9.4h7v-7h-7v7zm0 18.7h7v-7h-7v7zm0-28h7v-7h-7v7zm-9.5 93.3h7v-7h-7v7zm9.5-102.6h7v-7h-7v7zm0-18.7h7v-7h-7v7zm0-9.3h7v-7h-7v7zm0 18.6h7v-7h-7v7zm-9.5-149.3h7v-7h-7v7zm0 37.3h7v-7h-7v7zm0-28h7v-7h-7v7zm0 9.4h7v-7h-7v7zm0 9.3h7v-7h-7v7zm9.5 224h7v-7h-7v7zm0-37.3h7v-7h-7v7zm-9.5-233.4h7v-7h-7v7zm9.5 280h7v-7h-7v7zm-9.5-9.3h7v-7h-7v7zm-18.9-261.3h7v-7h-7v7zm0-9.4h7v-7h-7v7zm0 37.4h7v-7h-7v7zm9.5 242.6h7v-7h-7v7zm-9.5-252h7v-7h-7v7zm9.5 177.4h7v-7h-7v7zm0 65.3h7v-7h-7v7zm0-56h7v-7h-7v7zm0 18.7h7v-7h-7v7zm0-9.4h7v-7h-7v7zm-9.5-112h7v-7h-7v7zm18.9 224h7v-7h-7v7zm-18.9-214.6h7v-7h-7v7zm0-28h7v-7h-7v7zm0-28h7v-7h-7v7zm0 18.6h7v-7h-7v7zm0-37.3h7v-7h-7v7zm0 28h7v-7h-7v7zm0 28h7v-7h-7v7zm9.5 9.3h7v-7h-7v7zm0-28h7v-7h-7v7zm0-9.3h7v-7h-7v7zm0 28h7v-7h-7v7zm0 93.3h7v-7h-7v7zm0-130.6h7v-7h-7v7zm0-28h7v-7h-7v7zm0 9.3h7v-7h-7v7zm0 46.7h7v-7h-7v7zm0 74.6h7v-7h-7v7zm0-46.6h7v-7h-7v7zm0 65.3h7v-7h-7v7zm0-28h7v-7h-7v7zm0 18.7h7v-7h-7v7zm0-46.7h7v-7h-7v7zm0 18.7h7v-7h-7v7zm0-9.4h7v-7h-7v7zm-19-18.6h7v-7h-7v7zm-66.2 0h7v-7h-7v7zm0-9.4h7v-7h-7v7zm0 18.7h7v-7h-7v7zm0 9.3h7v-7h-7v7zm0-37.3h7v-7h-7v7zm0-37.3h7v-7h-7v7zm0 9.3h7v-7h-7v7zm0 9.3h7v-7h-7v7zm0 9.4h7v-7h-7v7zm-9.4 18.6h7v-7h-7v7zm0-28h7v-7h-7v7zm0 9.4h7v-7h-7v7zm0 9.3h7v-7h-7v7zm18.9 93.3h7v-7h-7v7zm-18.9-130.6h7v-7h-7v7zm0 9.3h7v-7h-7v7zm0-18.7h7v-7h-7v7zm9.4 93.4h7v-7h-7v7zm19 37.3h7v-7h-7v7zm-9.5-140h7v-7h-7v7zm0 28h7v-7h-7v7zm0-9.3h7v-7h-7v7zm0 18.6h7v-7h-7v7zm9.5 130.7h7v-7h-7v7zm0-9.3h7v-7h-7v7zm-9.5-18.7h7v-7h-7v7zm0-93.3h7v-7h-7v7zm0-56h7v-7h-7v7zm9.5 158.6h7v-7h-7v7zm-9.5-46.6h7v-7h-7v7zm0 18.6h7v-7h-7v7zm0 9.4h7v-7h-7v7zm0-74.7h7v-7h-7v7zm0 37.3h7v-7h-7v7zm0-9.3h7v-7h-7v7zm0-18.7h7v-7h-7v7zm0 9.4h7v-7h-7v7zm-18.9 0h7v-7h-7v7zm0 9.3h7v-7h-7v7zm-37.8-74.7h7v-7h-7v7zm0 9.4h7v-7h-7v7zm0 28h7v-7h-7v7zm0-9.4h7v-7h-7v7zm9.4 18.7h7v-7h-7v7zm0-18.7h7v-7h-7v7zm0-9.3h7v-7h-7v7zm0 18.7h7v-7h-7v7zm0-28h7v-7h-7v7zm-18.9 28h7v-7h-7v7zm9.5 9.3h7v-7h-7v7zm-9.5-18.7h7v-7h-7v7zm0 18.7h7v-7h-7v7zm0-28h7v-7h-7v7zm9.5 336h7v-7h-7v7zm-9.5-354.7h7v-7h-7v7zm0 9.4h7v-7h-7v7zm9.5 9.3h7v-7h-7v7zm28.3 28h7v-7h-7v7zm0 18.7h7v-7h-7v7zm0-9.4h7v-7h-7v7zm0-28h7v-7h-7v7zm0 9.4h7v-7h-7v7zm9.5 326.6h7v-7h-7v7zm-9.5-354.6h7v-7h-7v7zm0 9.3h7v-7h-7v7zm-9.4 9.3h7v-7h-7v7zm0 18.7h7v-7h-7v7zm9.4 28h7v-7h-7v7zm-9.4-18.7h7v-7h-7v7zm0 298.7h7v-7h-7v7zm0-317.3h7v-7h-7v7zm0 326.6h7v-7h-7v7zm9.4-280h7v-7h-7v7zm-9.4-65.3h7v-7h-7v7zm66.2 56h7v-7h-7v7zm0-18.7h7v-7h-7v7zm0 130.7h7v-7h-7v7zm0-121.3h7v-7h-7v7zm0 18.6h7v-7h-7v7zm0-46.6h7v-7h-7v7zm0 9.3h7v-7h-7v7zm0-28h7v-7h-7v7zm0 9.3h7v-7h-7v7zm0 65.4h7v-7h-7v7zm0 18.6h7v-7h-7v7zm0 37.4h7v-7h-7v7zm0 9.3h7v-7h-7v7zm0 9.3h7v-7h-7v7zm0-28h7v-7h-7v7zm0-37.3h7v-7h-7v7zm0-102.7h7v-7h-7v7zm-18.9 121.4h7v-7h-7v7zm18.9 0h7v-7h-7v7zm9.4-65.4h7v-7h-7v7zm-9.4-65.3h7v-7h-7v7zm9.4 149.3h7v-7h-7v7zm0-18.6h7v-7h-7v7zm0 9.3h7v-7h-7v7zm0-28h7v-7h-7v7zm0-37.3h7v-7h-7v7zm0 28h7v-7h-7v7zm0-18.7h7v-7h-7v7zm0 9.3h7v-7h-7v7zm0 28h7v-7h-7v7zm0 84h7v-7h-7v7zm0 186.7h7v-7h-7v7zm-9.4-420h7v-7h-7v7zm0 9.3h7v-7h-7v7zm9.4 186.7h7v-7h-7v7zm0-9.3h7v-7h-7v7zm0 18.6h7v-7h-7v7zm0 9.4h7v-7h-7v7zm-9.4-46.7h7v-7h-7v7zm-18.9-112h7v-7h-7v7zm0-37.3h7v-7h-7v7zm0 28h7v-7h-7v7zm0 18.6h7v-7h-7v7zm9.4 130.7h7v-7h-7v7zm-9.4-121.3h7v-7h-7v7zm0-65.4h7v-7h-7v7zm9.4 196h7v-7h-7v7zm-9.4-205.3h7v-7h-7v7zm0 149.3h7v-7h-7v7zm0-28h7v-7h-7v7zm0-37.3h7v-7h-7v7zm0 56h7v-7h-7v7zm9.4 46.7h7v-7h-7v7zm-9.4-56h7v-7h-7v7zm0-37.4h7v-7h-7v7zm0 9.4h7v-7h-7v7zm0 9.3h7v-7h-7v7zm9.4-28h7v-7h-7v7zm0 93.3h7v-7h-7v7zm0-102.6h7v-7h-7v7zm0-9.4h7v-7h-7v7zm0-65.3h7v-7h-7v7zm0 18.7h7v-7h-7v7zm0 28h7v-7h-7v7zm0 46.6h7v-7h-7v7zm0-65.3h7v-7h-7v7zm0 28h7v-7h-7v7zm0 93.3h7v-7h-7v7zm0 9.4h7v-7h-7v7zm0 9.3h7v-7h-7v7zm0-65.3h7v-7h-7v7zm0 37.3h7v-7h-7v7zm0-9.3h7v-7h-7v7zm0-18.7h7v-7h-7v7zm0 9.3h7v-7h-7v7zm141.9 196h7v-7h-7v7zm0 84h7v-7h-7v7zm0 18.7h7v-7h-7v7zm0-9.3h7v-7h-7v7zm0 18.6h7v-7h-7v7zm0-65.3h7v-7h-7v7zm0-9.3h7v-7h-7v7zm0 84h7v-7h-7v7zm0-46.7h7v-7h-7v7zm0-9.3h7v-7h-7v7zm0-9.4h7v-7h-7v7zm0 121.4h7v-7h-7v7zm0 9.3h7v-7h-7v7zm0 18.7h7v-7h-7v7zm0-74.7h7v-7h-7v7zm0 37.3h7v-7h-7v7zm0-28h7v-7h-7v7zm0 18.7h7v-7h-7v7zm0-9.3h7v-7h-7v7zm0-401.4h7v-7h-7v7zm0 46.7h7v-7h-7v7zm0 9.3h7v-7h-7v7zm0 9.4h7v-7h-7v7zm0-28h7v-7h-7v7zm0 37.3h7v-7h-7v7zm0-84h7v-7h-7v7zm0 476h7v-7h-7v7zm0-438.7h7v-7h-7v7zm0-18.6h7v-7h-7v7zm0 261.3h7v-7h-7v7zm0-9.3h7v-7h-7v7zm18.9-336h7v-7h-7v7zm-18.9 317.3h7v-7h-7v7zm0 37.3h7v-7h-7v7zm0-46.6h7v-7h-7v7zm0-149.4h7v-7h-7v7zm0 130.7h7v-7h-7v7zm0 9.3h7v-7h-7v7zm-9.5-168h7v-7h-7v7zm0 224h7v-7h-7v7zm0-18.6h7v-7h-7v7zm0 9.3h7v-7h-7v7zm0 18.7h7v-7h-7v7zm0-74.7h7v-7h-7v7zm0 18.7h7v-7h-7v7zm0 65.3h7v-7h-7v7zm0-74.7h7v-7h-7v7zm0 18.7h7v-7h-7v7zm0 9.3h7v-7h-7v7zm0 56h7v-7h-7v7zm0 102.7h7v-7h-7v7zm0-18.7h7v-7h-7v7zm0 28h7v-7h-7v7zm0-18.6h7v-7h-7v7zm0-84h7v-7h-7v7zm0 65.3h7v-7h-7v7zm0-9.3h7v-7h-7v7zm0-280h7v-7h-7v7zm0-102.7h7v-7h-7v7zm0 9.3h7v-7h-7v7zm0-18.6h7v-7h-7v7zm0 37.3h7v-7h-7v7zm0-46.7h7v-7h-7v7zm0-65.3h7v-7h-7v7zm0 121.3h7v-7h-7v7zm0-112h7v-7h-7v7zm0 186.7h7v-7h-7v7zm0-18.7h7v-7h-7v7zm0-9.3h7v-7h-7v7zm0-177.3h7v-7h-7v7zm0 289.3h7v-7h-7v7zm0-149.3h7v-7h-7v7zm0 9.3h7v-7h-7v7zm9.5-65.3h7v-7h-7v7zm-9.5 84h7v-7h-7v7zm28.4 214.6h7v-7h-7v7zm0 74.7h7v-7h-7v7zm-18.9-382.7h7v-7h-7v7zm18.9 392h7v-7h-7v7zm0 28h7v-7h-7v7zm0-9.3h7v-7h-7v7zm0-65.3h7v-7h-7v7zm0 9.3h7v-7h-7v7zm0 9.3h7v-7h-7v7zm0 9.4h7v-7h-7v7zm-9.5-429.4h7v-7h-7v7zm0 9.4h7v-7h-7v7zm0 9.3h7v-7h-7v7zm0 46.7h7v-7h-7v7zm0 9.3h7v-7h-7v7zm0 9.3h7v-7h-7v7zm0-102.6h7v-7h-7v7zm9.5 410.6h7v-7h-7v7zm-9.5-401.3h7v-7h-7v7zm9.5 541.3h7v-7h-7v7zm0-382.6h7v-7h-7v7zm0 9.3h7v-7h-7v7zm0 224h7v-7h-7v7zm0-214.7h7v-7h-7v7zm0 112h7v-7h-7v7zm0-205.3h7v-7h-7v7zm0 56h7v-7h-7v7zm0-112h7v-7h-7v7zm0 102.7h7v-7h-7v7zm0 18.6h7v-7h-7v7zm-28.4 373.4h7v-7h-7v7zm28.4-205.4h7v-7h-7v7zm0 37.4h7v-7h-7v7zm0 28h7v-7h-7v7zm0-18.7h7v-7h-7v7zm274.3-112h7v-7h-7v7zm-274.3 93.3h7v-7h-7v7zm0-9.3h7v-7h-7v7zm0 130.7h7v-7h-7v7zm-9.5-9.4h7v-7h-7v7zm0-9.3h7v-7h-7v7zm0-56h7v-7h-7v7zm0 46.7h7v-7h-7v7zm0-28h7v-7h-7v7zm0 65.3h7v-7h-7v7zm0-74.7h7v-7h-7v7zm0 18.7h7v-7h-7v7zm0 9.3h7v-7h-7v7zm0 37.4h7v-7h-7v7zm-9.4-457.4h7v-7h-7v7zm0-9.3h7v-7h-7v7zm0 18.7h7v-7h-7v7zm0 9.3h7v-7h-7v7zm9.4 466.7h7v-7h-7v7zm0-9.4h7v-7h-7v7zm0 74.7h7v-7h-7v7zm-9.4-569.3h7v-7h-7v7zm9.4 364h7v-7h-7v7zm0-196h7v-7h-7v7zm0 9.3h7v-7h-7v7zm0 112h7v-7h-7v7zm0-130.7h7v-7h-7v7zm0 28h7v-7h-7v7zm0-37.3h7v-7h-7v7zm0-18.7h7v-7h-7v7zm0 9.4h7v-7h-7v7zm0 214.6h7v-7h-7v7zm0-37.3h7v-7h-7v7zm0 56h7v-7h-7v7zm0 9.3h7v-7h-7v7zm0 9.4h7v-7h-7v7zm0-280h7v-7h-7v7zm0 214.6h7v-7h-7v7zm0 9.4h7v-7h-7v7zm0 9.3h7v-7h-7v7zm-47.3-18.7h7v-7h-7v7zm-9.4-261.3h7v-7h-7v7zm0 18.7h7v-7h-7v7zm0-9.4h7v-7h-7v7zm0 18.7h7v-7h-7v7zm0-84h7v-7h-7v7zm0 18.7h7v-7h-7v7zm0 18.6h7v-7h-7v7zm0-28h7v-7h-7v7zm0 84h7v-7h-7v7zm0-65.3h7v-7h-7v7zm0 177.3h7v-7h-7v7zm0-18.6h7v-7h-7v7zm0-84h7v-7h-7v7zm0 112h7v-7h-7v7zm0-18.7h7v-7h-7v7zm0-46.7h7v-7h-7v7zm0 18.7h7v-7h-7v7zm0-9.3h7v-7h-7v7zm9.4 28h7v-7h-7v7zm0-18.7h7v-7h-7v7zm-9.4 56h7v-7h-7v7zm9.4-46.7h7v-7h-7v7zm0 18.7h7v-7h-7v7zm0-37.3h7v-7h-7v7zm0 46.6h7v-7h-7v7zm0-121.3h7v-7h-7v7zm0-9.3h7v-7h-7v7zm0 289.3h7v-7h-7v7zm0-261.3h7v-7h-7v7zm0 168h7v-7h-7v7zm0-18.7h7v-7h-7v7zm-28.3-112h7v-7h-7v7zm28.3 74.7h7v-7h-7v7zm0 140h7v-7h-7v7zm0-130.7h7v-7h-7v7zm0 18.7h7v-7h-7v7zm0-9.4h7v-7h-7v7zm-28.3-158.6h7v-7h-7v7zm9.4 158.6h7v-7h-7v7zm9.5 0h7v-7h-7v7zm-9.5 56h7v-7h-7v7zm0-65.3h7v-7h-7v7zm0 46.7h7v-7h-7v7zm0-93.4h7v-7h-7v7zm0 37.4h7v-7h-7v7zm0-18.7h7v-7h-7v7zm0 9.3h7v-7h-7v7zm-9.4-186.6h7v-7h-7v7zm0 65.3h7v-7h-7v7zm0 9.3h7v-7h-7v7zm28.3-28h7v-7h-7v7zm-28.3 65.4h7v-7h-7v7zm9.4 28h7v-7h-7v7zm-9.4-149.4h7v-7h-7v7zm0 37.4h7v-7h-7v7zm0-9.4h7v-7h-7v7zm9.4 261.4h7v-7h-7v7zm0-298.7h7v-7h-7v7zm9.5 308h7v-7h-7v7zm-9.5-289.3h7v-7h-7v7zm0-9.4h7v-7h-7v7zm9.5 289.4h7v-7h-7v7zm0-56h7v-7h-7v7zm0 46.6h7v-7h-7v7zm0-18.6h7v-7h-7v7zm-9.5-177.4h7v-7h-7v7zm0 56h7v-7h-7v7zm0-65.3h7v-7h-7v7zm0-56h7v-7h-7v7zm0 46.7h7v-7h-7v7zm0 65.3h7v-7h-7v7zm0-102.7h7v-7h-7v7zm0 18.7h7v-7h-7v7zm0 9.3h7v-7h-7v7zm37.9 0h7v-7h-7v7zm0 289.4h7v-7h-7v7zm0-18.7h7v-7h-7v7zm0 9.3h7v-7h-7v7zm0-28h7v-7h-7v7zm0 9.4h7v-7h-7v7zm0-140h7v-7h-7v7zm0 9.3h7v-7h-7v7zm0 84h7v-7h-7v7zm0-18.7h7v-7h-7v7zm0 102.7h7v-7h-7v7zm0 37.3h7v-7h-7v7zm0 121.4h7v-7h-7v7zm0 9.3h7v-7h-7v7zm0 9.3h7v-7h-7v7zm0-158.6h7v-7h-7v7zm0-9.4h7v-7h-7v7zm0-196h7v-7h-7v7zm0 214.7h7v-7h-7v7zm9.4 149.3h7v-7h-7v7zm-9.4-522.6h7v-7h-7v7zm0-9.4h7v-7h-7v7zm0 46.7h7v-7h-7v7zm0-56h7v-7h-7v7zm0 550.7h7v-7h-7v7zm9.4-18.7h7v-7h-7v7zm0 18.7h7v-7h-7v7zm-9.4-560h7v-7h-7v7zm0 102.6h7v-7h-7v7zm0 56h7v-7h-7v7zm0-74.6h7v-7h-7v7zm0 56h7v-7h-7v7zm0 28h7v-7h-7v7zm0-18.7h7v-7h-7v7zm-19-84h7v-7h-7v7zm19 56h7v-7h-7v7zm0 9.3h7v-7h-7v7zm0 46.7h7v-7h-7v7zm-9.5 177.3h7v-7h-7v7zm0 28h7v-7h-7v7zm0-37.3h7v-7h-7v7zm0 28h7v-7h-7v7zm0-9.3h7v-7h-7v7zm0-102.7h7v-7h-7v7zm0 65.3h7v-7h-7v7zm0-46.6h7v-7h-7v7zm0 9.3h7v-7h-7v7zm0-65.3h7v-7h-7v7zm-9.5-205.4h7v-7h-7v7zm0 9.4h7v-7h-7v7zm0 9.3h7v-7h-7v7zm0 9.3h7v-7h-7v7zm9.5 429.4h7v-7h-7v7zm0-84h7v-7h-7v7zm-9.5-392h7v-7h-7v7zm0 9.3h7v-7h-7v7zm9.5 56h7v-7h-7v7zm0-65.3h7v-7h-7v7zm0 37.3h7v-7h-7v7zm0 84h7v-7h-7v7zm0 93.3h7v-7h-7v7zm0-158.6h7v-7h-7v7zm0-46.7h7v-7h-7v7zm0 9.3h7v-7h-7v7zm0 9.4h7v-7h-7v7zm0 46.6h7v-7h-7v7zm0 121.4h7v-7h-7v7zm0-18.7h7v-7h-7v7zm0 9.3h7v-7h-7v7zm0 18.7h7v-7h-7v7zm0-74.7h7v-7h-7v7zm0 37.4h7v-7h-7v7zm0-18.7h7v-7h-7v7zm0 9.3h7v-7h-7v7zm501.2-28h7v-7h-7v7zm85.2 354.7h7v-7h-7v7zm-9.5-336h7v-7h-7v7zm0-93.3h7v-7h-7v7zm9.5 410.6h7v-7h-7v7zm-19-298.6h7v-7h-7v7zm19 224h7v-7h-7v7zm0 46.6h7v-7h-7v7zm0-65.3h7v-7h-7v7zm0 74.7h7v-7h-7v7zm-9.5-382.7h7v-7h-7v7zm0 46.7h7v-7h-7v7zm0 18.6h7v-7h-7v7zm0-9.3h7v-7h-7v7zm0 18.7h7v-7h-7v7zm0-46.7h7v-7h-7v7zm0-9.3h7v-7h-7v7zm0 18.6h7v-7h-7v7zm0-28h7v-7h-7v7zm9.5 401.4h7v-7h-7v7zm0-289.4h7v-7h-7v7zm0 18.7h7v-7h-7v7zm0-9.3h7v-7h-7v7zm0 18.6h7v-7h-7v7zm0 9.4h7v-7h-7v7zm0-46.7h7v-7h-7v7zm0-28h7v-7h-7v7zm0 9.3h7v-7h-7v7zm0 9.4h7v-7h-7v7zm0 65.3h7v-7h-7v7zm0 112h7v-7h-7v7zm0-9.3h7v-7h-7v7zm0-18.7h7v-7h-7v7zm0 37.3h7v-7h-7v7zm0 9.4h7v-7h-7v7zm0-102.7h7v-7h-7v7zm0-18.7h7v-7h-7v7zm0 9.4h7v-7h-7v7zm-9.5 224h7v-7h-7v7zm-9.5-429.4h7v-7h-7v7zm0 37.4h7v-7h-7v7zm0-28h7v-7h-7v7zm0 18.6h7v-7h-7v7zm0-9.3h7v-7h-7v7zm19 74.7h7v-7h-7v7zm-9.5 317.3h7v-7h-7v7zm0-9.3h7v-7h-7v7zm0 18.6h7v-7h-7v7zm-9.5-345.3h7v-7h-7v7zm0 18.7h7v-7h-7v7zm-245.8 112h7v-7h-7v7zm245.8-158.7h7v-7h-7v7zm0 65.3h7v-7h-7v7zm0-9.3h7v-7h-7v7zm0-46.7h7v-7h-7v7zm9.5 336h7v-7h-7v7zm-9.5-326.6h7v-7h-7v7zm9.5 84h7v-7h-7v7zm0 18.6h7v-7h-7v7zm0 18.7h7v-7h-7v7zm0-74.7h7v-7h-7v7zm0 65.4h7v-7h-7v7zm0-18.7h7v-7h-7v7zm0-37.3h7v-7h-7v7zm0 9.3h7v-7h-7v7zm0 9.3h7v-7h-7v7zm0 196h7v-7h-7v7zm0-140h7v-7h-7v7zm0 93.4h7v-7h-7v7zm0 9.3h7v-7h-7v7zm0 18.7h7v-7h-7v7zm0-9.4h7v-7h-7v7zm0-102.6h7v-7h-7v7zm0 9.3h7v-7h-7v7zm0 9.3h7v-7h-7v7zm9.5 186.7h7v-7h-7v7zm18.9-46.7h7v-7h-7v7zm0 28h7v-7h-7v7zm0-18.6h7v-7h-7v7zm0 9.3h7v-7h-7v7zm0-37.3h7v-7h-7v7zm0-74.7h7v-7h-7v7zm0 37.3h7v-7h-7v7zm0-46.6h7v-7h-7v7zm-9.5-196h7v-7h-7v7zm0-9.4h7v-7h-7v7zm0-18.6h7v-7h-7v7zm0-9.4h7v-7h-7v7zm0 18.7h7v-7h-7v7zm9.5 177.3h7v-7h-7v7zm-9.5-205.3h7v-7h-7v7zm9.5 392h7v-7h-7v7zm0 9.3h7v-7h-7v7zm0-18.6h7v-7h-7v7zm0-121.4h7v-7h-7v7zm0-224h7v-7h-7v7zm0 9.4h7v-7h-7v7zm0-18.7h7v-7h-7v7zm0 28h7v-7h-7v7zm0-37.3h7v-7h-7v7zm0-28h7v-7h-7v7zm0 9.3h7v-7h-7v7zm0 65.3h7v-7h-7v7zm0-56h7v-7h-7v7zm0 102.7h7v-7h-7v7zm-18.9-46.7h7v-7h-7v7zm18.9 84h7v-7h-7v7zm0-28h7v-7h-7v7zm0 18.7h7v-7h-7v7zm0-46.7h7v-7h-7v7zm0-9.3h7v-7h-7v7zm0 18.7h7v-7h-7v7zm0-28h7v-7h-7v7zm0 56h7v-7h-7v7zm-9.5 233.3h7v-7h-7v7zm0 9.3h7v-7h-7v7zm0 9.4h7v-7h-7v7zm0 9.3h7v-7h-7v7zm0-37.3h7v-7h-7v7zm0-298.7h7v-7h-7v7zm0 345.3h7v-7h-7v7zm0-93.3h7v-7h-7v7zm0 18.7h7v-7h-7v7zm-9.4-270.7h7v-7h-7v7zm-56.8 196h7v-7h-7v7zm56.8-224h7v-7h-7v7zm0 9.3h7v-7h-7v7zm9.4 373.4h7v-7h-7v7zm0-121.4h7v-7h-7v7zm-9.4-289.3h7v-7h-7v7zm0 9.3h7v-7h-7v7zm0 9.4h7v-7h-7v7zm9.4 280h7v-7h-7v7zm0-28h7v-7h-7v7zm0-168h7v-7h-7v7zm0 9.3h7v-7h-7v7zm0 9.3h7v-7h-7v7zm0-37.3h7v-7h-7v7zm0-18.7h7v-7h-7v7zm0 65.4h7v-7h-7v7zm0-56h7v-7h-7v7zm0 18.6h7v-7h-7v7zm0 112h7v-7h-7v7zm0 18.7h7v-7h-7v7zm0 9.3h7v-7h-7v7zm0 9.4h7v-7h-7v7zm0-102.7h7v-7h-7v7zm0 18.7h7v-7h-7v7zm0 18.6h7v-7h-7v7zm0 9.4h7v-7h-7v7zm-56.7 46.6h7v-7h-7v7zm75.6 168h7v-7h-7v7zm-75.6-280h7v-7h-7v7zm0-9.3h7v-7h-7v7zm0 28h7v-7h-7v7zm0-56h7v-7h-7v7zm0 65.3h7v-7h-7v7zm0-74.6h7v-7h-7v7zm0 18.6h7v-7h-7v7zm0 9.4h7v-7h-7v7zm0 112h7v-7h-7v7zm0-56h7v-7h-7v7zm0 46.6h7v-7h-7v7zm0-9.3h7v-7h-7v7zm0 28h7v-7h-7v7zm0-158.7h7v-7h-7v7zm0 102.7h7v-7h-7v7zm0 18.7h7v-7h-7v7zm0-9.4h7v-7h-7v7zm0-46.6h7v-7h-7v7zm9.4 186.6h7v-7h-7v7zm-9.4-345.3h7v-7h-7v7zm9.4 280h7v-7h-7v7zm-9.4-289.3h7v-7h-7v7zm9.4 345.3h7v-7h-7v7zm0-93.3h7v-7h-7v7zm0 9.3h7v-7h-7v7zm0 18.7h7v-7h-7v7zm0-9.4h7v-7h-7v7zm-9.4-196h7v-7h-7v7zm0 18.7h7v-7h-7v7zm0-28h7v-7h-7v7zm0 18.7h7v-7h-7v7zm0-65.4h7v-7h-7v7zm0 37.4h7v-7h-7v7zm0-28h7v-7h-7v7zm0 18.6h7v-7h-7v7zm0-9.3h7v-7h-7v7zm-9.5 233.3h7v-7h-7v7zm0-93.3h7v-7h-7v7zm0 9.3h7v-7h-7v7zm0-65.3h7v-7h-7v7zm0 46.7h7v-7h-7v7zm0 28h7v-7h-7v7zm9.5 84h7v-7h-7v7zm-9.5-149.4h7v-7h-7v7zm0 18.7h7v-7h-7v7zm0 9.3h7v-7h-7v7zm0 46.7h7v-7h-7v7zm0 46.7h7v-7h-7v7zm0 9.3h7v-7h-7v7zm18.9-18.7h7v-7h-7v7zm-18.9 37.4h7v-7h-7v7zm0-56h7v-7h-7v7zm0-9.4h7v-7h-7v7zm0 18.7h7v-7h-7v7zm0 9.3h7v-7h-7v7zm0-102.6h7v-7h-7v7zm9.5 205.3h7v-7h-7v7zm-9.5-317.3h7v-7h-7v7zm0-28h7v-7h-7v7zm0 18.6h7v-7h-7v7zm0-28h7v-7h-7v7zm9.5 317.4h7v-7h-7v7zm0 28h7v-7h-7v7zm0-18.7h7v-7h-7v7zm-9.5-261.3h7v-7h-7v7zm0-18.7h7v-7h-7v7zm0 37.3h7v-7h-7v7zm0 18.7h7v-7h-7v7zm0 9.3h7v-7h-7v7zm0-18.6h7v-7h-7v7zm0-37.4h7v-7h-7v7zm0 65.4h7v-7h-7v7zm0-46.7h7v-7h-7v7zm28.4 270.7h7v-7h-7v7zm0-205.4h7v-7h-7v7zm0-18.6h7v-7h-7v7zm0 9.3h7v-7h-7v7zm0-74.7h7v-7h-7v7zm0 56h7v-7h-7v7zm0-18.6h7v-7h-7v7zm0-18.7h7v-7h-7v7zm0-9.3h7v-7h-7v7zm0 18.6h7v-7h-7v7zm0 18.7h7v-7h-7v7zm0 93.3h7v-7h-7v7zm0 9.4h7v-7h-7v7zm0-56h7v-7h-7v7zm-9.5 93.3h7v-7h-7v7zm9.5-28h7v-7h-7v7zm0-56h7v-7h-7v7zm0 18.7h7v-7h-7v7zm0-9.4h7v-7h-7v7zm0-140h7v-7h-7v7zm9.4 186.7h7v-7h-7v7zm0 28h7v-7h-7v7zm0-37.3h7v-7h-7v7zm0 28h7v-7h-7v7zm0-9.4h7v-7h-7v7zm0-56h7v-7h-7v7zm0 9.4h7v-7h-7v7zm0 9.3h7v-7h-7v7zm0 9.3h7v-7h-7v7zm-9.4-158.6h7v-7h-7v7zm9.4 326.6h7v-7h-7v7zm-9.4-140h7v-7h-7v7zm9.4 205.4h7v-7h-7v7zm-9.4-382.7h7v-7h-7v7zm9.4 205.3h7v-7h-7v7zm0 93.4h7v-7h-7v7zm0-18.7h7v-7h-7v7zm0 9.3h7v-7h-7v7zm-9.4-149.3h7v-7h-7v7zm-9.5-46.7h7v-7h-7v7zm0-18.6h7v-7h-7v7zm0 9.3h7v-7h-7v7zm0 18.7h7v-7h-7v7zm0-56h7v-7h-7v7zm0-9.4h7v-7h-7v7zm0 74.7h7v-7h-7v7zm9.5 74.7h7v-7h-7v7zm-9.5-121.4h7v-7h-7v7zm0-9.3h7v-7h-7v7zm0 102.7h7v-7h-7v7zm0 18.6h7v-7h-7v7zm0-9.3h7v-7h-7v7zm0 18.7h7v-7h-7v7zm0-37.4h7v-7h-7v7zm0-28h7v-7h-7v7zm0 9.4h7v-7h-7v7zm0 9.3h7v-7h-7v7zm0-112h7v-7h-7v7zm9.5 214.7h7v-7h-7v7zm0-18.7h7v-7h-7v7zm0 9.3h7v-7h-7v7zm0 18.7h7v-7h-7v7zm0-37.3h7v-7h-7v7zm0 74.6h7v-7h-7v7zm0-93.3h7v-7h-7v7zm0 9.3h7v-7h-7v7zm9.4-93.3h7v-7h-7v7zm-18.9-121.3h7v-7h-7v7zm0 9.3h7v-7h-7v7zm0 18.7h7v-7h-7v7zm0-37.4h7v-7h-7v7zm0 28h7v-7h-7v7zm9.5 308h7v-7h-7v7zm-9.5-354.6h7v-7h-7v7zm0 9.3h7v-7h-7v7zm37.9 74.7h7v-7h-7v7zm94.5 9.3h7v-7h-7v7zm0-9.3h7v-7h-7v7zm0 261.3h7v-7h-7v7zm0-46.7h7v-7h-7v7zm0-140h7v-7h-7v7zm0-102.6h7v-7h-7v7zm0 18.6h7v-7h-7v7zm-9.4-56h7v-7h-7v7zm9.4 46.7h7v-7h-7v7zm0 345.3h7v-7h-7v7zm0 37.4h7v-7h-7v7zm0 9.3h7v-7h-7v7zm0-93.3h7v-7h-7v7zm0 74.6h7v-7h-7v7zm0 28h7v-7h-7v7zm0-37.3h7v-7h-7v7zm0-392h7v-7h-7v7zm0 382.7h7v-7h-7v7zm0-373.4h7v-7h-7v7zm9.5 37.4h7v-7h-7v7zm0-28h7v-7h-7v7zm0-9.4h7v-7h-7v7zm0 28h7v-7h-7v7zm0-9.3h7v-7h-7v7zm-9.5-46.7h7v-7h-7v7zm9.5-9.3h7v-7h-7v7zm9.4 130.7h7v-7h-7v7zm0 214.6h7v-7h-7v7zm0-224h7v-7h-7v7zm-9.4 289.4h7v-7h-7v7zm0-326.7h7v-7h-7v7zm0 336h7v-7h-7v7zm0 9.3h7v-7h-7v7zm0-74.6h7v-7h-7v7zm0-214.7h7v-7h-7v7zm0 149.3h7v-7h-7v7zm0 46.7h7v-7h-7v7zm-18.9 121.3h7v-7h-7v7zm-9.5-429.3h7v-7h-7v7zm0 9.3h7v-7h-7v7zm0-18.6h7v-7h-7v7zm0 28h7v-7h-7v7zm9.5 401.3h7v-7h-7v7zm-9.5-392h7v-7h-7v7zm37.8 56h7v-7h-7v7zm-28.3 364h7v-7h-7v7zm-9.5-466.7h7v-7h-7v7zm0 56h7v-7h-7v7zm9.5 373.4h7v-7h-7v7zm-9.5-289.4h7v-7h-7v7zm0 9.4h7v-7h-7v7zm0-28h7v-7h-7v7zm0 9.3h7v-7h-7v7zm0-18.7h7v-7h-7v7zm0-46.6h7v-7h-7v7zm0 9.3h7v-7h-7v7zm9.5-9.3h7v-7h-7v7zm0 224h7v-7h-7v7zm0-214.7h7v-7h-7v7zm0 74.7h7v-7h-7v7zm0 102.6h7v-7h-7v7zm0-224h7v-7h-7v7zm0 9.4h7v-7h-7v7zm-56.8 373.3h7v-7h-7v7zm56.8-354.7h7v-7h-7v7zm0 345.4h7v-7h-7v7zm0-18.7h7v-7h-7v7zm0 37.3h7v-7h-7v7zm0-28h7v-7h-7v7zm0 18.7h7v-7h-7v7zm0-74.7h7v-7h-7v7zm0-9.3h7v-7h-7v7zm0 18.7h7v-7h-7v7zm0 28h7v-7h-7v7zm75.6-326.7h7v-7h-7v7zm-9.4 326.7h7v-7h-7v7zm9.4-308h7v-7h-7v7zm0 214.6h7v-7h-7v7zm0 37.4h7v-7h-7v7zm0 121.3h7v-7h-7v7zm0-410.7h7v-7h-7v7zm9.5 429.4h7v-7h-7v7zm-9.5-420h7v-7h-7v7zm-85.1 224h7v-7h-7v7zm37.8-168h7v-7h-7v7zm37.9-28h7v-7h-7v7zm0 37.3h7v-7h-7v7zm0-46.7h7v-7h-7v7zm0 205.4h7v-7h-7v7zm9.4 214.6h7v-7h-7v7zm9.5-28h7v-7h-7v7zm-9.5 18.7h7v-7h-7v7zm-9.4-429.3h7v-7h-7v7zm9.4 18.6h7v-7h-7v7zm37.9 326.7h7v-7h-7v7zm0-336h7v-7h-7v7zm-9.5 0h7v-7h-7v7zm0-9.3h7v-7h-7v7zm0-18.7h7v-7h-7v7zm9.5 0h7v-7h-7v7zm9.4 37.3h7v-7h-7v7zm0-16.3v7h7v-7h-7zm0 324.3h7v-7h-7v7zm-37.8-298.6h7v-7h-7v7zm9.4 308h7v-7h-7v7zm-9.4-326.7h7v-7h-7v7zm0-9.3h7v-7h-7v7zm0 18.6h7v-7h-7v7zm9.4-9.3h7v-7h-7v7zm0 18.7h7v-7h-7v7zm0-28h7v-7h-7v7zm0-9.4h7v-7h-7v7zm-28.3 18.7h7v-7h-7v7zm-28.4 28h7v-7h-7v7zm0-9.3h7v-7h-7v7zm0-9.4h7v-7h-7v7zm0 37.4h7v-7h-7v7zm0-9.4h7v-7h-7v7zm9.5 261.4h7v-7h-7v7zm-9.5-317.4h7v-7h-7v7zm0 18.7h7v-7h-7v7zm0-9.3h7v-7h-7v7zm-9.5 0h7v-7h-7v7zm37.9 438.6h7v-7h-7v7zm-37.9-429.3h7v-7h-7v7zm19 242.7h7v-7h-7v7zm-19-224h7v-7h-7v7zm0-9.4h7v-7h-7v7zm0-28h7v-7h-7v7zm9.5 308h7v-7h-7v7zm0 9.4h7v-7h-7v7zm0-242.7h7v-7h-7v7zm18.9-37.3h7v-7h-7v7zm0 9.3h7v-7h-7v7zm0 28h7v-7h-7v7zm0 205.3h7v-7h-7v7zm0-252h7v-7h-7v7zm-9.4 28h7v-7h-7v7zm9.4-46.6h7v-7h-7v7zm0 9.3h7v-7h-7v7zm9.5 438.7h7v-7h-7v7zm-18.9-429.4h7v-7h-7v7zm9.4 317.4h7v-7h-7v7zm-9.4-326.7h7v-7h-7v7zm0 28h7v-7h-7v7zm0-9.3h7v-7h-7v7zm9.4 317.3h7v-7h-7v7zm0 112h7v-7h-7v7zm-9.4-457.3h7v-7h-7v7zm-47.3 9.3h7v-7h-7v7zm-47.3-18.7h7v-7h-7v7zm0 56h7v-7h-7v7zm0-9.3h7v-7h-7v7zm0 28h7v-7h-7v7zm0 9.3h7v-7h-7v7zm0-74.6h7v-7h-7v7zm0 9.3h7v-7h-7v7zm0 9.3h7v-7h-7v7zm0 9.4h7v-7h-7v7zm0 28h7v-7h-7v7zm0 112h7v-7h-7v7zm0-84h7v-7h-7v7zm0 186.6h7v-7h-7v7zm0-121.3h7v-7h-7v7zm0 9.3h7v-7h-7v7zm0-46.6h7v-7h-7v7zm0 168h7v-7h-7v7zm0-177.4h7v-7h-7v7zm0-9.3h7v-7h-7v7zm9.4 56h7v-7h-7v7zm0-9.3h7v-7h-7v7zm0-28h7v-7h-7v7zm0 168h7v-7h-7v7zm0 112h7v-7h-7v7zm0-317.4h7v-7h-7v7zm0 214.7h7v-7h-7v7zm0-205.3h7v-7h-7v7zm0 9.3h7v-7h-7v7zm0 9.3h7v-7h-7v7zm0 261.4h7v-7h-7v7zm0-298.7h7v-7h-7v7zm0 308h7v-7h-7v7zm0 9.3h7v-7h-7v7zm0-65.3h7v-7h-7v7zm0 28h7v-7h-7v7zm0-18.7h7v-7h-7v7zm0 9.4h7v-7h-7v7zm0 18.6h7v-7h-7v7zm-18.9-224h7v-7h-7v7zm0 9.4h7v-7h-7v7zm0 9.3h7v-7h-7v7zm0-28h7v-7h-7v7zm0-37.3h7v-7h-7v7zm0-9.4h7v-7h-7v7zm0 37.4h7v-7h-7v7zm0 158.6h7v-7h-7v7zm0-168h7v-7h-7v7zm0-9.3h7v-7h-7v7zm0 261.3h7v-7h-7v7zm0-74.6h7v-7h-7v7zm0 56h7v-7h-7v7zm0 28h7v-7h-7v7zm0-18.7h7v-7h-7v7zm0-18.7h7v-7h-7v7zm0-37.3h7v-7h-7v7zm0 9.3h7v-7h-7v7zm0-270.6h7v-7h-7v7zm9.5 345.3h7v-7h-7v7zm0-18.7h7v-7h-7v7zm-9.5-382.6h7v-7h-7v7zm9.5 410.6h7v-7h-7v7zm0-18.6h7v-7h-7v7zm0-37.4h7v-7h-7v7zm0 18.7h7v-7h-7v7zm0-9.3h7v-7h-7v7zm-9.5-336h7v-7h-7v7zm0 37.3h7v-7h-7v7zm0-46.7h7v-7h-7v7zm0 56h7v-7h-7v7zm0 9.4h7v-7h-7v7zm9.5 261.3h7v-7h-7v7zm-9.5-252h7v-7h-7v7zm0-46.7h7v-7h-7v7zm0-9.3h7v-7h-7v7zm28.4 37.3h7v-7h-7v7zm9.5 37.4h7v-7h-7v7zm0-9.4h7v-7h-7v7zm0-28h7v-7h-7v7zm0 65.4h7v-7h-7v7zm0-84h7v-7h-7v7zm0 9.3h7v-7h-7v7zm0-28h7v-7h-7v7zm0 9.3h7v-7h-7v7zm0 102.7h7v-7h-7v7zm0 9.3h7v-7h-7v7zm0 224h7v-7h-7v7zm-19-298.6h7v-7h-7v7zm19 289.3h7v-7h-7v7zm0 18.7h7v-7h-7v7zm0-364h7v-7h-7v7zm0 140h7v-7h-7v7zm0 158.6h7v-7h-7v7zm0-9.3h7v-7h-7v7zm0-326.7h7v-7h-7v7zm9.4 382.7h7v-7h-7v7zm0-9.3h7v-7h-7v7zm0 18.6h7v-7h-7v7zm0-28h7v-7h-7v7zm-9.4-336h7v-7h-7v7zm9.4 298.7h7v-7h-7v7zm0 9.3h7v-7h-7v7zm0 65.4h7v-7h-7v7zm0-46.7h7v-7h-7v7zm-9.4 56h7v-7h-7v7zm9.4 37.3h7v-7h-7v7zm-9.4-438.6h7v-7h-7v7zm0 9.3h7v-7h-7v7zm9.4 401.3h7v-7h-7v7zm0-9.3h7v-7h-7v7zm0 28h7v-7h-7v7zm0-9.3h7v-7h-7v7zm-9.4-56h7v-7h-7v7zm-9.5 28h7v-7h-7v7zm0-9.4h7v-7h-7v7zm0 18.7h7v-7h-7v7zm0-28h7v-7h-7v7zm0-28h7v-7h-7v7zm0 18.7h7v-7h-7v7zm0-46.7h7v-7h-7v7zm0-9.3h7v-7h-7v7zm0 102.6h7v-7h-7v7zm0 9.4h7v-7h-7v7zm-9.5-364h7v-7h-7v7zm0-9.4h7v-7h-7v7zm0 18.7h7v-7h-7v7zm0 9.3h7v-7h-7v7zm9.5 102.7h7v-7h-7v7zm-9.5-158.7h7v-7h-7v7zm19 392h7v-7h-7v7zm-19-373.3h7v-7h-7v7zm0-9.3h7v-7h-7v7zm9.5-9.4h7v-7h-7v7zm0 9.4h7v-7h-7v7zm0 9.3h7v-7h-7v7zm0 9.3h7v-7h-7v7zm0-56h7v-7h-7v7zm0 65.4h7v-7h-7v7zm9.5 364h7v-7h-7v7zm0 9.3h7v-7h-7v7zm-9.5-345.3h7v-7h-7v7zm0 37.3h7v-7h-7v7zm0 9.3h7v-7h-7v7zm0-65.3h7v-7h-7v7zm0 46.7h7v-7h-7v7zm0 46.6h7v-7h-7v7zm18.9 149.4h7v-7h-7v7zm-18.9-140h7v-7h-7v7zm0-65.4h7v-7h-7v7zm-75.7-28h7v-7h-7v7zm-189.1 18.7h7v-7h-7v7zm0 9.3h7v-7h-7v7zm0-18.6h7v-7h-7v7zm0 28h7v-7h-7v7zm0-37.4h7v-7h-7v7zm0-28h7v-7h-7v7zm0 74.7h7v-7h-7v7zm0 112h7v-7h-7v7zm0-168h7v-7h-7v7zm0-28h7v-7h-7v7zm0 149.3h7v-7h-7v7zm0 18.7h7v-7h-7v7zm0-56h7v-7h-7v7zm0 74.7h7v-7h-7v7zm151.3 46.6h7v-7h-7v7zm-151.3-93.3h7v-7h-7v7zm0-18.7h7v-7h-7v7zm0 9.4h7v-7h-7v7zm0-112h7v-7h-7v7zm9.5 121.3h7v-7h-7v7zm0-56h7v-7h-7v7zm0-9.3h7v-7h-7v7zm0 56h7v-7h-7v7zm0-28h7v-7h-7v7zm0-65.4h7v-7h-7v7zm0 28h7v-7h-7v7zm0-18.6h7v-7h-7v7zm0 9.3h7v-7h-7v7zm-9.5-65.3h7v-7h-7v7zm9.5 205.3h7v-7h-7v7zm0 28h7v-7h-7v7zm0-18.7h7v-7h-7v7zm0-177.3h7v-7h-7v7zm0 130.7h7v-7h-7v7zm0 28h7v-7h-7v7zm0-37.4h7v-7h-7v7zm0 28h7v-7h-7v7zm-9.5-252h7v-7h-7v7zm-9.5 224h7v-7h-7v7zm0-65.3h7v-7h-7v7zm0 46.7h7v-7h-7v7zm0 28h7v-7h-7v7zm0-18.7h7v-7h-7v7zm0-46.7h7v-7h-7v7zm0 9.4h7v-7h-7v7zm0 9.3h7v-7h-7v7zm0 9.3h7v-7h-7v7zm0 46.7h7v-7h-7v7zm0 46.7h7v-7h-7v7zm0-37.4h7v-7h-7v7zm0 65.4h7v-7h-7v7zm0 9.3h7v-7h-7v7zm0-18.7h7v-7h-7v7zm0-46.6h7v-7h-7v7zm0 18.6h7v-7h-7v7zm0-9.3h7v-7h-7v7zm9.5 140h7v-7h-7v7zm0-130.7h7v-7h-7v7zm0 112h7v-7h-7v7zm0 9.4h7v-7h-7v7zm-9.5-410.7h7v-7h-7v7zm9.5 317.3h7v-7h-7v7zm0-9.3h7v-7h-7v7zm0 18.7h7v-7h-7v7zm-9.5-252h7v-7h-7v7zm0 56h7v-7h-7v7zm0 9.3h7v-7h-7v7zm0-18.7h7v-7h-7v7zm0-37.3h7v-7h-7v7zm0 65.3h7v-7h-7v7zm0 9.4h7v-7h-7v7zm0-65.4h7v-7h-7v7zm0 18.7h7v-7h-7v7zm0-9.3h7v-7h-7v7zm28.4-18.7h7v-7h-7v7zm9.5 28h7v-7h-7v7zm0 18.7h7v-7h-7v7zm0 18.6h7v-7h-7v7zm0-9.3h7v-7h-7v7zm0-18.7h7v-7h-7v7zm0-46.6h7v-7h-7v7zm0 9.3h7v-7h-7v7zm0 18.7h7v-7h-7v7zm0-9.4h7v-7h-7v7zm0 121.4h7v-7h-7v7zm0-149.4h7v-7h-7v7zm0 140h7v-7h-7v7zm0 18.7h7v-7h-7v7zm0-28h7v-7h-7v7zm0-18.7h7v-7h-7v7zm0 9.4h7v-7h-7v7zm0-18.7h7v-7h-7v7zm0-9.3h7v-7h-7v7zm0-158.7h7v-7h-7v7zm9.4 168h7v-7h-7v7zm0 28h7v-7h-7v7zm0-18.7h7v-7h-7v7zm0-28h7v-7h-7v7zm0 9.4h7v-7h-7v7zm0-37.4h7v-7h-7v7zm0 18.7h7v-7h-7v7zm-9.4-93.3h7v-7h-7v7zm9.4 84h7v-7h-7v7zm0-18.7h7v-7h-7v7zm-9.4 121.3h7v-7h-7v7zm9.4 18.7h7v-7h-7v7zm0-9.3h7v-7h-7v7zm-9.4-233.4h7v-7h-7v7zm9.4 224h7v-7h-7v7zm0-18.6h7v-7h-7v7zm0-9.4h7v-7h-7v7zm0 18.7h7v-7h-7v7zm-18.9-65.3h7v-7h-7v7zm0 112h7v-7h-7v7zm0-93.4h7v-7h-7v7zm0 56h7v-7h-7v7zm0 28h7v-7h-7v7zm0-9.3h7v-7h-7v7zm0-46.7h7v-7h-7v7zm0-18.6h7v-7h-7v7zm0 28h7v-7h-7v7zm9.5 28h7v-7h-7v7zm-9.5 0h7v-7h-7v7zm-9.4-233.4h7v-7h-7v7zm9.4 270.7h7v-7h-7v7zm-9.4-186.7h7v-7h-7v7zm0-93.3h7v-7h-7v7zm0 84h7v-7h-7v7zm9.4 336h7v-7h-7v7zm0-112h7v-7h-7v7zm0 65.3h7v-7h-7v7zm0-149.3h7v-7h-7v7zm0-168h7v-7h-7v7zm-28.4 336h7v-7h-7v7zm28.4-382.7h7v-7h-7v7zm0 65.4h7v-7h-7v7zm0-28h7v-7h-7v7zm9.5 205.3h7v-7h-7v7zm0 18.7h7v-7h-7v7zm0-9.4h7v-7h-7v7zm-9.5-121.3h7v-7h-7v7zm0-9.3h7v-7h-7v7zm0 18.6h7v-7h-7v7zm0-56h7v-7h-7v7zm-9.4 9.4h7v-7h-7v7zm9.4 65.3h7v-7h-7v7zm0-65.3h7v-7h-7v7zm0 9.3h7v-7h-7v7zm0 9.3h7v-7h-7v7zm-37.8 112h7v-7h-7v7zm-28.4-158.6h7v-7h-7v7zm0 18.6h7v-7h-7v7zm0-9.3h7v-7h-7v7zm0 18.7h7v-7h-7v7zm9.5 280h7v-7h-7v7zm0 9.3h7v-7h-7v7zm0 9.3h7v-7h-7v7zm-9.5-186.6h7v-7h-7v7zm9.5 214.6h7v-7h-7v7zm0-18.6h7v-7h-7v7zm-9.5-242.7h7v-7h-7v7zm0 28h7v-7h-7v7zm0-74.7h7v-7h-7v7zm0 37.4h7v-7h-7v7zm0 46.6h7v-7h-7v7zm0-74.6h7v-7h-7v7zm0 18.6h7v-7h-7v7zm0-9.3h7v-7h-7v7zm0-28h7v-7h-7v7zm9.5 158.7h7v-7h-7v7zm0 18.6h7v-7h-7v7zm0-9.3h7v-7h-7v7zm0-46.7h7v-7h-7v7zm0 9.4h7v-7h-7v7zm0-37.4h7v-7h-7v7zm0 18.7h7v-7h-7v7zm0-28h7v-7h-7v7zm0 18.7h7v-7h-7v7zm0 149.3h7v-7h-7v7zm0-28h7v-7h-7v7zm0 18.7h7v-7h-7v7zm0-9.4h7v-7h-7v7zm0 28h7v-7h-7v7zm0-65.3h7v-7h-7v7zm0-9.3h7v-7h-7v7zm0 18.6h7v-7h-7v7zm0 9.4h7v-7h-7v7zm-9.5 56h7v-7h-7v7zm-9.4-289.4h7v-7h-7v7zm0 9.4h7v-7h-7v7zm0-18.7h7v-7h-7v7zm0 28h7v-7h-7v7zm9.4 298.7h7v-7h-7v7zm-9.4-336h7v-7h-7v7zm0 46.6h7v-7h-7v7zm9.4 308h7v-7h-7v7zm-9.4-364h7v-7h-7v7zm9.4 354.7h7v-7h-7v7zm-9.4-242.7h7v-7h-7v7zm0 28h7v-7h-7v7zm0 9.4h7v-7h-7v7zm0-46.7h7v-7h-7v7zm0-18.7h7v-7h-7v7zm0-9.3h7v-7h-7v7zm0-9.3h7v-7h-7v7zm0 28h7v-7h-7v7zm9.4 177.3h7v-7h-7v7zm0-46.7h7v-7h-7v7zm0-9.3h7v-7h-7v7zm0 37.3h7v-7h-7v7zm0-9.3h7v-7h-7v7zm0-9.3h7v-7h-7v7zm0-28h7v-7h-7v7zm0-18.7h7v-7h-7v7zm0 9.3h7v-7h-7v7zm0 102.7h7v-7h-7v7zm9.5-186.7h7v-7h-7v7zm-9.5 224h7v-7h-7v7zm0-28h7v-7h-7v7zm0 18.7h7v-7h-7v7zm0-149.3h7v-7h-7v7zm0 84h7v-7h-7v7zm0 28h7v-7h-7v7zm0-9.4h7v-7h-7v7zm18.9-224h7v-7h-7v7zm9.5 158.7h7v-7h-7v7zm0 9.3h7v-7h-7v7zm0 18.7h7v-7h-7v7zm0 9.3h7v-7h-7v7zm0 9.4h7v-7h-7v7zm0-74.7h7v-7h-7v7zm0-9.3h7v-7h-7v7zm0 18.6h7v-7h-7v7zm0 9.4h7v-7h-7v7zm-9.5-186.7h7v-7h-7v7zm0 18.7h7v-7h-7v7zm9.5 233.3h7v-7h-7v7zm-9.5-242.7h7v-7h-7v7zm18.9 317.4h7v-7h-7v7zm-18.9-298.7h7v-7h-7v7zm9.5 233.3h7v-7h-7v7zm56.7-242.6h7v-7h-7v7zm-66.2-28h7v-7h-7v7zm9.5 28h7v-7h-7v7zm-9.5 28h7v-7h-7v7zm9.5 9.3h7v-7h-7v7zm0-18.7h7v-7h-7v7zm0 9.4h7v-7h-7v7zm0-18.7h7v-7h-7v7zm9.4 317.3h7v-7h-7v7zm-9.4-336h7v-7h-7v7zm9.4 326.7h7v-7h-7v7zm-9.4-196h7v-7h-7v7zm9.4 214.7h7v-7h-7v7zm-9.4-233.4h7v-7h-7v7zm0-18.6h7v-7h-7v7zm0 9.3h7v-7h-7v7zm0-46.7h7v-7h-7v7zm0 65.4h7v-7h-7v7zm0-37.4h7v-7h-7v7zm0-18.6h7v-7h-7v7zm0 9.3h7v-7h-7v7zm-9.5 84h7v-7h-7v7zm0 149.3h7v-7h-7v7zm-9.4-392h7v-7h-7v7zm9.4 382.7h7v-7h-7v7zm-9.4-317.3h7v-7h-7v7zm9.4 308h7v-7h-7v7zm0-18.7h7v-7h-7v7zm-9.4-280h7v-7h-7v7zm9.4 270.7h7v-7h-7v7zm0 18.6h7v-7h-7v7zm0-233.3h7v-7h-7v7zm-9.4 9.3h7v-7h-7v7zm0-18.6h7v-7h-7v7zm0 9.3h7v-7h-7v7zm0 18.7h7v-7h-7v7zm0-46.7h7v-7h-7v7zm0-9.3h7v-7h-7v7zm0 18.6h7v-7h-7v7zm0-28h7v-7h-7v7zm9.4 252h7v-7h-7v7zm0-168h7v-7h-7v7zm0 28h7v-7h-7v7zm0-9.3h7v-7h-7v7zm0 18.7h7v-7h-7v7zm0-46.7h7v-7h-7v7zm0 56h7v-7h-7v7zm0-74.7h7v-7h-7v7zm0 9.4h7v-7h-7v7zm0 168h7v-7h-7v7zm0-28h7v-7h-7v7zm0 9.3h7v-7h-7v7zm0-74.7h7v-7h-7v7zm0 102.7h7v-7h-7v7zm0-18.7h7v-7h-7v7zm0-74.6h7v-7h-7v7zm-9.4-74.7h7v-7h-7v7zm9.4 93.3h7v-7h-7v7zm28.4 0h7v-7h-7v7zm113.5-112h7v-7h-7v7zm0 102.7h7v-7h-7v7zm0-84h7v-7h-7v7zm0-9.3h7v-7h-7v7zm0-18.7h7v-7h-7v7zm0-37.3h7v-7h-7v7zm0 18.6h7v-7h-7v7zm0-28h7v-7h-7v7zm0 18.7h7v-7h-7v7zm0 130.7h7v-7h-7v7zm0-18.7h7v-7h-7v7zm0 9.3h7v-7h-7v7zm0-56h7v-7h-7v7zm0 37.4h7v-7h-7v7zm0-130.7h7v-7h-7v7zm0 102.7h7v-7h-7v7zm0 18.6h7v-7h-7v7zm0-9.3h7v-7h-7v7zm0-65.3h7v-7h-7v7zm9.4 56h7v-7h-7v7zm0-9.4h7v-7h-7v7zm0 18.7h7v-7h-7v7zm0 9.3h7v-7h-7v7zm0-65.3h7v-7h-7v7zm0 9.3h7v-7h-7v7zm0 65.4h7v-7h-7v7zm0-56h7v-7h-7v7zm0 9.3h7v-7h-7v7zm0 65.3h7v-7h-7v7zm-9.4-186.6h7v-7h-7v7zm9.4 214.6h7v-7h-7v7zm-9.4-205.3h7v-7h-7v7zm0 9.3h7v-7h-7v7zm9.4 177.4h7v-7h-7v7zm-9.4-168h7v-7h-7v7zm9.4 177.3h7v-7h-7v7zm0-28h7v-7h-7v7zm-18.9 0h7v-7h-7v7zm0 28h7v-7h-7v7zm0 28h7v-7h-7v7zm0-84h7v-7h-7v7zm0 74.7h7v-7h-7v7zm0-9.4h7v-7h-7v7zm0-46.6h7v-7h-7v7zm0-9.4h7v-7h-7v7zm18.9-74.6h7v-7h-7v7zm-18.9 102.6h7v-7h-7v7zm0 9.4h7v-7h-7v7zm9.5 18.6h7v-7h-7v7zm-18.9-149.3h7v-7h-7v7zm0-18.7h7v-7h-7v7zm0 28h7v-7h-7v7zm0-65.3h7v-7h-7v7zm0 28h7v-7h-7v7zm0-18.7h7v-7h-7v7zm0 9.4h7v-7h-7v7zm0 28h7v-7h-7v7zm9.4 84h7v-7h-7v7zm0-112h7v-7h-7v7zm0 9.3h7v-7h-7v7zm0 9.3h7v-7h-7v7zm0-46.6h7v-7h-7v7zm9.5 224h7v-7h-7v7zm-9.5-233.4h7v-7h-7v7zm0 65.4h7v-7h-7v7zm0-37.4h7v-7h-7v7zm0 102.7h7v-7h-7v7zm0-9.3h7v-7h-7v7zm0 18.6h7v-7h-7v7zm0-65.3h7v-7h-7v7zm0 37.3h7v-7h-7v7zm0-9.3h7v-7h-7v7zm0-18.7h7v-7h-7v7zm0 9.4h7v-7h-7v7zm37.9-93.4h7v-7h-7v7zm0 168h7v-7h-7v7zm0 9.4h7v-7h-7v7zm0-18.7h7v-7h-7v7zm0 28h7v-7h-7v7zm0-46.7h7v-7h-7v7zm0-9.3h7v-7h-7v7zm0 18.7h7v-7h-7v7zm0-28h7v-7h-7v7zm0-9.4h7v-7h-7v7zm0 84h7v-7h-7v7zm0 56h7v-7h-7v7zm0 46.7h7v-7h-7v7zm-9.5-336h7v-7h-7v7zm9.5 242.7h7v-7h-7v7zm0 37.3h7v-7h-7v7zm0-28h7v-7h-7v7zm0 9.3h7v-7h-7v7zm0 9.4h7v-7h-7v7zm0-224h7v-7h-7v7zm0-46.7h7v-7h-7v7zm0 56h7v-7h-7v7zm0-46.7h7v-7h-7v7zm0 130.7h7v-7h-7v7zm-19-28h7v-7h-7v7zm28.4 242.7h7v-7h-7v7zm0-28h7v-7h-7v7zm0 9.3h7v-7h-7v7zm0 9.3h7v-7h-7v7zm-18.9-336h7v-7h-7v7zm9.5 112h7v-7h-7v7zm0-56h7v-7h-7v7zm0 37.4h7v-7h-7v7zm0 28h7v-7h-7v7zm0-18.7h7v-7h-7v7zm0-18.7h7v-7h-7v7zm0-18.6h7v-7h-7v7zm0 9.3h7v-7h-7v7zm-47.3 46.7h7v-7h-7v7zm37.8 140h7v-7h-7v7zm0-9.4h7v-7h-7v7zm0-9.3h7v-7h-7v7zm0 46.7h7v-7h-7v7zm0-65.4h7v-7h-7v7zm0-18.6h7v-7h-7v7zm0 9.3h7v-7h-7v7zm-9.5-224h7v-7h-7v7zm9.5 242.7h7v-7h-7v7zm-9.5-140h7v-7h-7v7zm0-65.4h7v-7h-7v7zm0 46.7h7v-7h-7v7zm0 9.3h7v-7h-7v7zm9.5 112h7v-7h-7v7zm-9.5-130.6h7v-7h-7v7zm0-28h7v-7h-7v7zm0 9.3h7v-7h-7v7zm0 9.3h7v-7h-7v7zm9.5 65.4h7v-7h-7v7zm0-46.7h7v-7h-7v7zm0 9.3h7v-7h-7v7zm0 9.4h7v-7h-7v7zm0-28h7v-7h-7v7zm0-28h7v-7h-7v7zm0 18.6h7v-7h-7v7zm0 130.7h7v-7h-7v7zm0-140h7v-7h-7v7zm0 56h7v-7h-7v7zm0 65.3h7v-7h-7v7zm0-9.3h7v-7h-7v7zm0 18.7h7v-7h-7v7zm0-28h7v-7h-7v7zm0-121.4h7v-7h-7v7zm0 84h7v-7h-7v7zm0 28h7v-7h-7v7zm0-9.3h7v-7h-7v7zm-47.3 9.3h7v-7h-7v7zm-28.4-84h7v-7h-7v7zm0 9.4h7v-7h-7v7zm0 9.3h7v-7h-7v7zm0-28h7v-7h-7v7zm9.5 205.3h7v-7h-7v7zm0-9.3h7v-7h-7v7zm-9.5-158.7h7v-7h-7v7zm0 84h7v-7h-7v7zm0-149.3h7v-7h-7v7zm0 84h7v-7h-7v7zm0 46.7h7v-7h-7v7zm0-18.7h7v-7h-7v7zm0 9.3h7v-7h-7v7zm0 18.7h7v-7h-7v7zm0-46.7h7v-7h-7v7zm0 9.4h7v-7h-7v7zm9.5 112h7v-7h-7v7zm-9.5-140h7v-7h-7v7zm9.5 429.3h7v-7h-7v7zm0-401.3h7v-7h-7v7zm0-9.4h7v-7h-7v7zm0 18.7h7v-7h-7v7zm0-28h7v-7h-7v7zm0-46.7h7v-7h-7v7zm0 84h7v-7h-7v7zm0-74.6h7v-7h-7v7zm0 28h7v-7h-7v7zm0-9.4h7v-7h-7v7zm0 140h7v-7h-7v7zm0-74.6h7v-7h-7v7zm0 56h7v-7h-7v7zm0-18.7h7v-7h-7v7zm0 28h7v-7h-7v7zm0-18.7h7v-7h-7v7zm28.4-65.3h7v-7h-7v7zm-28.4 46.7h7v-7h-7v7zm0-9.4h7v-7h-7v7zm0-93.3h7v-7h-7v7zm-9.5 102.7h7v-7h-7v7zm-9.4 28h7v-7h-7v7zm0-9.4h7v-7h-7v7zm0 18.7h7v-7h-7v7zm0 9.3h7v-7h-7v7zm0-74.6h7v-7h-7v7zm0 9.3h7v-7h-7v7zm0 9.3h7v-7h-7v7zm0 9.4h7v-7h-7v7zm0 9.3h7v-7h-7v7zm-9.5-121.3h7v-7h-7v7zm0-9.4h7v-7h-7v7zm0 18.7h7v-7h-7v7zm9.5 158.7h7v-7h-7v7zm-9.5-205.4h7v-7h-7v7zm9.5 214.7h7v-7h-7v7zm-9.5-252h7v-7h-7v7zm0 9.3h7v-7h-7v7zm9.5 140h7v-7h-7v7zm9.4 93.4h7v-7h-7v7zm0-9.4h7v-7h-7v7zm0 18.7h7v-7h-7v7zm-9.4-112h7v-7h-7v7zm9.4 65.3h7v-7h-7v7zm0-9.3h7v-7h-7v7zm0 18.7h7v-7h-7v7zm-9.4-214.7h7v-7h-7v7zm9.4 224h7v-7h-7v7zm-9.4-112h7v-7h-7v7zm0 9.3h7v-7h-7v7zm0-18.6h7v-7h-7v7zm0 28h7v-7h-7v7zm0-46.7h7v-7h-7v7zm0-9.3h7v-7h-7v7zm0 18.6h7v-7h-7v7zm0-56h7v-7h-7v7zm18.9 130.7h7v-7h-7v7zm18.9-65.3h7v-7h-7v7zm0-9.4h7v-7h-7v7zm0 18.7h7v-7h-7v7zm0 18.7h7v-7h-7v7zm0-9.4h7v-7h-7v7zm0 93.4h7v-7h-7v7zm9.5 102.6h7v-7h-7v7zm-9.5-252h7v-7h-7v7zm0 18.7h7v-7h-7v7zm-47.3 9.3h7v-7h-7v7zm47.3 93.4h7v-7h-7v7zm0 9.3h7v-7h-7v7zm0-18.7h7v-7h-7v7zm0 28h7v-7h-7v7zm0-46.6h7v-7h-7v7zm0 9.3h7v-7h-7v7zm9.5 140h7v-7h-7v7zm-9.5-168h7v-7h-7v7zm9.5 186.7h7v-7h-7v7zm0-130.7h7v-7h-7v7zm0 102.7h7v-7h-7v7zm0-84h7v-7h-7v7zm0-9.4h7v-7h-7v7zm0-18.6h7v-7h-7v7zm0-37.4h7v-7h-7v7zm0 18.7h7v-7h-7v7zm0-9.3h7v-7h-7v7zm0 18.6h7v-7h-7v7zm0 93.4h7v-7h-7v7zm0-9.4h7v-7h-7v7zm0-37.3h7v-7h-7v7zm0 65.3h7v-7h-7v7zm0-9.3h7v-7h-7v7zm0-46.7h7v-7h-7v7zm0 9.4h7v-7h-7v7zm0 9.3h7v-7h-7v7zm-18.9 65.3h7v-7h-7v7zm0-93.3h7v-7h-7v7zm0-18.7h7v-7h-7v7zm0-18.6h7v-7h-7v7zm0 28h7v-7h-7v7zm0-18.7h7v-7h-7v7zm0-18.7h7v-7h-7v7zm0-18.6h7v-7h-7v7zm0-9.4h7v-7h-7v7zm0 18.7h7v-7h-7v7zm0 93.3h7v-7h-7v7zm0 18.7h7v-7h-7v7zm0 9.3h7v-7h-7v7zm0-18.6h7v-7h-7v7zm-9.5-214.7h7v-7h-7v7zm9.5 84h7v-7h-7v7zm0 102.7h7v-7h-7v7zm0 9.3h7v-7h-7v7zm0-18.7h7v-7h-7v7zm0-130.6h7v-7h-7v7zm9.4 168h7v-7h-7v7zm0 9.3h7v-7h-7v7zm0 9.3h7v-7h-7v7zm0 9.4h7v-7h-7v7zm0-37.4h7v-7h-7v7zm0-28h7v-7h-7v7zm0 18.7h7v-7h-7v7zm0-9.3h7v-7h-7v7zm-9.4-121.4h7v-7h-7v7zm9.4 102.7h7v-7h-7v7zm0 84h7v-7h-7v7zm-9.4-177.3h7v-7h-7v7zm0-37.4h7v-7h-7v7zm0 18.7h7v-7h-7v7zm9.4 205.3h7v-7h-7v7zm-9.4-233.3h7v-7h-7v7zm0-28h7v-7h-7v7z" fill="#262626"/>
    </symbol>

	<!-- Checkmark -->
    <symbol id="checkmark" viewBox="0 0 113.5 109.1">
        <title>Sukces</title>
        <g>
			<circle cy="54.5" cx="54.5" r="54.5" fill="#37B05D"/>
			<path fill="#FFFFFF" d="m53.3 77.3c-0.6 0-1.2-0.2-1.7-0.5l-28.5-19.8c-1.4-1-1.7-2.8-0.8-4.2 1-1.4 2.8-1.7 4.2-0.8l26.2 18.2 55.4-67c1.1-1.3 3-1.5 4.3-0.4s1.5 3 0.4 4.3l-57.1 69.1c-0.6 0.8-1.5 1.1-2.4 1.1z"/>
		</g>
    </symbol>
	<!-- Apple -->
    <symbol id="email-apple" viewBox="0 0 40.4 50.5">
        <title>Apple</title>
        <g>
			<path fill="#666666" d="m33.8 26.8c0-2 0.5-3.7 1.2-5.1 1.5-3 4-4.4 4.1-4.5-2.9-4.4-7.4-5-9.1-5-3.8-0.4-7.5 2.3-9.5 2.3-1.9 0-5-2.2-8.2-2.2-4.2 0.1-8.1 2.5-10.3 6.4-0.7 1.2-1.2 2.5-1.5 3.8-1.9 7.3 1.1 16.3 4.7 21.7 2.1 3 4.6 6.5 7.8 6.4s4.3-2.1 8.1-2.1 4.9 2.1 8.2 2c3.4 0 5.5-3.1 7.6-6.2 2.4-3.6 3.3-7 3.4-7.2 0.1-0.1-6.5-2.6-6.5-10.3zm-6.3-18.8c1.8-2.1 2.9-5.1 2.6-8-2.5 0.1-5.6 1.6-7.3 3.8-1.6 1.9-3 4.9-2.6 7.8 2.7 0.2 5.6-1.4 7.3-3.6z"/>
		</g>
    </symbol>
	<!-- Google -->
    <symbol id="email-google" viewBox="0 0 512 512">
        <title>Google</title>
        <g>
			<path d="m113.47 309.41l-17.822 66.53-65.139 1.378c-19.467-36.11-30.509-77.42-30.509-121.32 0-42.451 10.324-82.483 28.624-117.73h0.014l57.992 10.632 25.404 57.644c-5.317 15.501-8.215 32.141-8.215 49.456 0 18.79 3.4 36.8 9.65 53.41z" fill="#FBBB00"/>
			<path d="m507.53 208.18c2.94 15.48 4.47 31.48 4.47 47.82 0 18.328-1.927 36.206-5.598 53.451-12.462 58.683-45.025 109.92-90.134 146.19l-0.014-0.014-73.044-3.727-10.338-64.535c29.932-17.554 53.324-45.025 65.646-77.911h-136.89v-101.27h138.89 107z" fill="#518EF8"/>
			<path d="m416.25 455.62l0.014 0.014c-43.86 35.27-99.59 56.37-160.26 56.37-97.491 0-182.25-54.491-225.49-134.68l82.961-67.91c21.619 57.698 77.278 98.771 142.53 98.771 28.047 0 54.323-7.582 76.87-20.818l83.38 68.26z" fill="#28B446"/>
			<path d="m419.4 58.936l-82.933 67.896c-23.335-14.586-50.919-23.012-80.471-23.012-66.729 0-123.43 42.957-143.96 102.72l-83.397-68.276h-0.014c42.601-82.137 128.43-138.26 227.37-138.26 62.12 0 119.07 22.126 163.4 58.936z" fill="#F14336"/>
		</g>
    </symbol>
	<!-- Outlook -->
    <symbol id="email-outlook" viewBox="0 0 40 36.9">
        <title>Outlook</title>
        <g>
			<path fill="#F6BF1C" d="m40 13.2c0-0.7-0.5-1.3-1.2-1.3h-11.4v2.7h9.1l-6 4.9-3.1-2.6v3.4l2.4 2c0.4 0.3 1 0.3 1.4 0l6.5-5.3v7h-10.3v2.7h11.5c0.6 0 1.2-0.6 1.2-1.3v-11.2c-0.1 0-0.1-1-0.1-1zm-27.5 10.7c1.7 0 2.8-2.2 2.8-5.5 0-2.7-0.8-5.5-2.8-5.5-2.1 0-2.8 2.8-2.8 5.5 0 3.2 1 5.5 2.8 5.5zm-12.5 11.2l24.9 1.8v-36.9l-24.9 2.2v32.9zm12.6-26.2c4.3 0 7.1 3.9 7.1 9.4 0 6.7-3.6 9.8-7.3 9.8-4.1 0-7.2-3.5-7.2-9.4 0-6 3-9.8 7.4-9.8z"/>
		</g>
    </symbol>
	<!-- Outlook.com -->
    <symbol id="email-outlook-com" viewBox="0 0 40 36.9">
        <title>Outlook.com</title>
        <g>
			<path fill="#2A71C4" d="m40 13.2c0-0.7-0.5-1.3-1.2-1.3h-11.4v2.7h9.1l-6 4.9-3.1-2.6v3.4l2.4 2c0.4 0.3 1 0.3 1.4 0l6.5-5.3v7h-10.3v2.7h11.5c0.6 0 1.2-0.6 1.2-1.3v-11.2c-0.1 0-0.1-1-0.1-1zm-27.5 10.7c1.7 0 2.8-2.2 2.8-5.5 0-2.7-0.8-5.5-2.8-5.5-2.1 0-2.8 2.8-2.8 5.5 0 3.2 1 5.5 2.8 5.5zm-12.5 11.2l24.9 1.8v-36.9l-24.9 2.2v32.9zm12.6-26.2c4.3 0 7.1 3.9 7.1 9.4 0 6.7-3.6 9.8-7.3 9.8-4.1 0-7.2-3.5-7.2-9.4 0-6 3-9.8 7.4-9.8z"/>
		</g>
    </symbol>
	<!-- Yahoo -->
    <symbol id="email-yahoo" viewBox="0 0 40.4 50.5">
        <title>Yahoo</title>
        <g>
			<path fill="#F14336" d="m40 0.2v0c-2.4 0.5-4.5 0.6-6.6 0-1.9 3.5-8.8 14.8-13.2 22-4.5-7.3-9.8-15.8-13.2-22-2.7 0.6-3.9 0.6-6.6 0 5.4 8.1 14.1 23.7 17 28.8l-0.4 21.2s1.9-0.3 3.2-0.3c1.4 0 3.2 0.3 3.2 0.3l-0.5-21.2c5.5-9.6 14.6-25.4 17.1-28.8z"/>
		</g>
    </symbol>

    <!-- Contact trigger questions -->
    <symbol id="trigger-question" viewBox="0 0 101.5 101.5">
        <title>Masz jakie pytania?</title>
        <g>
        	<path fill="#3197DE" d="m50.8 0c-28 0-50.8 22.8-50.8 50.8 0 11.3 3.7 21.8 10 30.2v0.1h0.1c9.3 12.4 24 20.4 40.7 20.4 28 0 50.8-22.8 50.8-50.7-0.1-28-22.9-50.8-50.8-50.8zm-47.8 50.8c0-26.4 21.4-47.8 47.8-47.8s47.8 21.4 47.8 47.8c0 10.8-3.6 20.7-9.6 28.7v-6.6c0-1.1 0-2.5-11.8-5.9-4.8-1.4-11.2-2.9-12.7-2.9l-2.4-0.1v0.1l-1-1.2c0-0.4 0.1-0.8 0.1-1.1 2-1.4 3.2-3.2 3.4-4.9 0-0.4 0.1-0.7 0.1-1.1 0.2 0 0.3 0.1 0.5 0.1h0.4c1.6 0 3-1 3.5-2.4 1.1-0.8 2.1-2.1 2.7-3.5 0.7-0.5 1.2-1.2 1.3-2.1l0.3-2.4c0.1-1.1-0.4-2.1-1.2-2.7-0.3-1-0.8-1.8-1.3-2.5 0-0.8-0.2-1.6-0.7-2.3l-0.2-0.2c0-2.8-0.5-5.6-1.4-8.2 1.1-0.4 1.9-1.3 2.2-2.4 0.3-0.9 0.2-2-0.3-2.9-3.7-6.9-12-11.5-20.6-11.5h-0.2c-8.6 0-16.9 4.6-20.6 11.5-0.5 0.9-0.6 2-0.3 3 0.3 0.9 1.1 1.8 2 2.2-1 2.7-1.5 5.5-1.5 8.4l-0.1 0.1c-0.5 0.7-0.8 1.5-0.7 2.3-0.6 0.7-1 1.6-1.3 2.5-0.9 0.6-1.4 1.6-1.2 2.7l0.3 2.4c0.1 0.9 0.6 1.6 1.3 2.1 0.6 1.5 1.5 2.7 2.7 3.5 0.5 1.4 1.9 2.4 3.5 2.4h0.4c0.2 0 0.5-0.1 0.7-0.1 0 0.3 0.1 0.7 0.1 1.1 0.1 1.6 1.3 3.3 3 4.6v0.1l0.2 0.1c0.3 0.2 0.5 0.4 0.8 0.6l-1.6 1.9v-0.1l-2.6 0.1c-1.5 0-7.9 1.5-12.7 2.9-12.1 3.2-12.1 4.6-12.1 5.7v2.9c-4.4-7.3-7-15.8-7-24.9zm56 8.9l-0.6 0.3-0.1 0.7c-0.1 0.5-0.1 1.3-0.2 2.2l-6.6 13.7h-3.7l-6.5-13.4 4.5 2h9.1v-3h-8.5l-7-3c-1.1-0.9-1.7-1.8-1.7-2.5-0.2-1.8-0.4-3.5-0.6-5.3l-0.4-3.1v0.1l-0.9-7.5h0.1c-0.1-1.1-0.3-2.1-0.4-3.2l-0.2-1.4c0-0.2 0-0.4-0.1-0.7-0.2-1.8-0.4-4.7 0.7-7.2 0.1-0.1 0.2-0.3 0.3-0.4 0.4-0.7 0.9-1.4 1.4-2l0.2-0.2c2.8-3.1 7.1-5 11.7-5h0.1c4.7 0 9.2 2 12 5.3l0.3 0.3c0.4 0.5 0.7 1 1 1.5 0.1 0.2 0.3 0.5 0.5 0.7 1.1 2.4 0.8 5.2 0.7 6.9 0 0.3-0.1 0.6-0.1 0.7-0.1 0.7-0.2 1.8-0.4 3-0.1 0.2-0.1 0.4-0.2 0.7l-0.2 2.1c0 0.3-0.1 0.5-0.1 0.7l-1 8-1.7 2.6-5.8 1.7c-0.7-0.3-1.6-0.4-2.5-0.1-1 0.3-1.8 0.9-2.2 1.6-0.3 0.5-0.4 1.2-0.2 1.7 0.2 0.8 0.9 1.4 1.7 1.6 0.3 0.1 0.6 0.1 0.9 0.1 0.4 0 0.8-0.1 1.1-0.2 1.2-0.3 2.1-1.1 2.4-2l5.8-1.6v0.4c-0.1 0.9-1 2.2-2.6 3.2zm1.4 7.1l-0.4 17.7-5.7-6.7 5.6-11.7 0.5 0.7zm-15.5 11.1l-5.6 6.6-0.5-17.7 0.5-0.7 5.7 11.6-0.1 0.2zm7.2 3.9h-5.3l0.7-2.3h3.8l0.8 2.3zm-20.8-41.6c0-0.1 0-0.2 0.1-0.3s0.3-0.2 0.5-0.3c0.4 0 0.7 0.2 0.7 0.5l1.5 12.3c0 0.1 0 0.2-0.1 0.3 0 0.1-0.2 0.3-0.4 0.3-0.4 0-0.7-0.2-0.8-0.5l-0.1-0.7-0.6-0.4c-0.9-0.5-1.7-1.6-2.1-2.9l-0.3-0.6-0.7-0.3-0.3-2.3 0.8-0.3 0.2-0.8c0.2-1 0.7-1.8 1.2-2.3l0.6-0.5-0.2-1.2zm0.9-3.6v-0.4 0.2 0.2c0.1 0 0 0 0 0zm1.2-10c-0.2 0.2-0.6 0.3-0.9 0.3-0.2 0-0.3 0-0.5-0.1-0.3-0.1-0.5-0.3-0.5-0.5-0.1-0.2 0-0.4 0.1-0.6 3.2-5.9 10.5-9.9 18-9.9h0.2c7.6 0 14.8 4 18 9.9 0.1 0.2 0.1 0.4 0.1 0.6-0.1 0.2-0.3 0.4-0.5 0.5s-0.3 0.1-0.5 0.1h-0.3c-0.2 0-0.4-0.1-0.5-0.2-0.5-0.9-1.1-1.7-1.9-2.5-3.3-4-8.7-6.6-14.4-6.6h-0.1c-5.5 0-10.7 2.3-14.1 6.1-1 0.9-1.7 1.9-2.2 2.9zm31.6 25.2l1.1-9.4c0.1-0.7 0.2-1.5 0.3-2.3v-0.2c0.1-0.2 0.4-0.3 0.6-0.3s0.4 0.1 0.5 0.3c0.1 0.1 0.1 0.2 0.1 0.3l-0.2 1.2 0.6 0.5c0.5 0.5 1 1.3 1.2 2.3l0.2 0.8 0.7 0.3-0.1 2.3-0.7 0.2-0.2 0.7c-0.4 1.3-1.2 2.3-2.1 2.9l-0.6 0.4-0.1 0.7c0 0.3-0.4 0.5-0.7 0.5s-0.4-0.2-0.5-0.2c0 0 0-0.1-0.1-0.1v-0.9zm-52 28.2v-6.7c2.6-1.9 19.5-6.2 21.6-6.2h1.3l0.6 25.3 6.2-7.2h2.2l-0.9 12.8c-12.6-1.8-23.5-8.4-31-18zm34 18.3l0.9-13.1h3.2l0.9 13.3h-1.2c-1.3 0-2.6-0.1-3.8-0.2zm8 0l-0.9-13.1h2.3l-0.2-0.5 6.6 7.7 0.6-25.3h1c2 0 18.9 4.3 21.5 6.2v9.8c-7.8 8.5-18.7 14.1-30.9 15.2z"/>
		</g>
    </symbol>
    <!-- Contact trigger meeting -->
    <symbol id="trigger-meeting" viewBox="0 0 99.6 86">
        <title>Zarejestruj si na prywatne szkolenie</title>
        <g>
        	<path fill="#3197DE" d="m5.6 56.4h88.4v-50.8h-88.4v50.8zm3-47.8h82.4v44.8h-82.4v-44.8zm90.9 50.4v-54.9c0-2.3-1.9-4.1-4.1-4.1h-91.2c-2.3 0-4.1 1.9-4.1 4.1v54.9h-0.1v9.6c0 2.4 2.3 4.8 4.7 4.8h32.9v1.8c0 1.9 0.1 4-0.2 5.2-0.2 1.2-0.2 1.2-0.9 1.6h-0.1c-0.4 0.2-1.2 0.6-2.1 1h-2.4v3h35.7v-3h-2.4c-0.9-0.4-1.7-0.8-2.2-1-0.2-0.1-0.4-0.2-0.5-0.3 0-0.1-0.2-0.3-0.3-1.3-0.2-1.2-0.2-3.3-0.2-5.1v-1.9h33.5c2.5 0 4-2.4 4-4.7v-9.7zm-59.8 24c0.3-0.5 0.4-1.1 0.6-2 0.3-1.5 0.3-3.7 0.2-5.8v-1.7l18.5 0.1v1.7c0 2.1-0.1 4.2 0.2 5.7 0.2 0.9 0.4 1.6 0.6 2.1h-20.1zm-36.6-78.9c0-0.6 0.5-1.1 1.1-1.1h91.1c0.6 0 1.1 0.5 1.1 1.1v54.9h-93.3v-54.9zm92.5 66.3h-90.9c-0.7 0-1.7-1-1.7-1.8v-6.6h93.6v6.7c0 0.8-0.5 1.7-1 1.7zm-45-53.2h-3v-5.6h3v5.6zm-7.6 4.7l-4.8-2.8 1.5-2.6 4.8 2.8-1.5 2.6zm0.4 3.7l1.5 2.6-4.9 2.8-1.5-2.6 4.9-2.8zm4.8 4.2h3v5.6h-3v-5.6zm7.2-8.4l-1.5-2.6 4.8-2.8 1.5 2.6-4.8 2.8zm-6 0.1l12.7 30 4.7-10.5 7 7 2.1-2.1-7-7 10.6-4.6-30.1-12.8zm12.8 22.5l-7.1-16.8 16.8 7.1-6.7 3-3 6.7z"/>
		</g>
    </symbol>
    <!-- Contact trigger meeting -->
    <symbol id="trigger-callcenter" viewBox="0 0 80.8 75.8">
        <title>Obsluga klienta</title>
        <g>
        	<path fill="#3197DE" d="m44 75.8h-0.8c-4.4-0.3-8.3-1.9-11.3-3.3-7.8-3.8-14.6-9.1-20.3-15.9-4.7-5.7-7.8-10.9-9.9-16.6-0.9-2.3-1.9-5.8-1.6-9.4 0.2-2.2 1.1-4.1 2.6-5.7l4.5-4.5c1.2-1.1 2.6-1.7 4-1.7s2.8 0.6 3.9 1.7c0.8 0.7 1.6 1.5 2.4 2.4l1.2 1.2 3.6 3.6c1.2 1.2 1.9 2.6 1.9 4s-0.6 2.8-1.9 4l-1.1 1.1c-0.8 0.8-1.8 1.8-2.9 2.8-0.3 0.3-0.4 0.8-0.2 1.2 0.8 1.8 1.9 3.5 3.5 5.5 3.4 4.2 7 7.5 11 10 0.3 0.2 0.7 0.4 1.1 0.6l0.4 0.2 0.6 0.3c0.1 0.1 0.3 0.1 0.5 0.1 0.3 0 0.5-0.1 0.7-0.3l4-4c1.2-1.2 2.6-1.8 4-1.8s2.8 0.6 3.9 1.8l7.2 7.2c2.4 2.4 2.4 5.6 0 8.1-0.6 0.6-1.1 1.2-1.7 1.7-0.9 0.9-1.7 1.6-2.4 2.4-1.7 2.3-4.1 3.3-6.9 3.3zm-32.8-55c-0.9 0-1.7 0.4-2.5 1.1l-4.4 4.4c-1.2 1.2-1.9 2.7-2.1 4.4-0.2 2.5 0.3 5.1 1.5 8.5 2 5.5 5.1 10.5 9.6 15.9 5.5 6.6 12.1 11.7 19.6 15.4 2.8 1.3 6.5 2.9 10.5 3.1h0.7c2.2 0 4-0.7 5.4-2.3 0.7-0.8 1.4-1.5 2.1-2.2l0.7-0.7c0.4-0.4 0.9-0.8 1.3-1.3 1.6-1.7 1.6-3.5 0-5.1l-7.2-7.2c-0.8-0.8-1.6-1.2-2.4-1.2-1.1 0-1.9 0.6-2.5 1.2l-4.5 4.5c-0.5 0.5-1 0.7-1.5 0.7-0.3 0-0.7-0.1-1-0.3l-0.2-0.1c-0.3-0.2-0.7-0.4-1.1-0.6l-0.3-0.2c-0.5-0.2-1-0.5-1.4-0.8-4.1-2.6-7.9-6-11.5-10.5-2-2.5-3.2-4.5-4.2-6.8-0.3-0.8-0.3-1.5 0.5-2.3l0.1-0.1c1.1-1 2.2-2.1 3.3-3.2l1-1c0.9-1 1.4-1.8 1.4-2.6 0-0.9-0.4-1.7-1.2-2.5l-3.6-3.6c-0.4-0.4-0.8-0.8-1.2-1.3l-2.4-2.4c-0.9-0.5-1.7-0.9-2.5-0.9zm44.6 23.3c-2.3 0-4.5-0.3-6.7-0.8-0.3-0.1-0.5-0.2-0.7-0.5-0.1-0.2-0.2-0.5-0.1-0.8 0.1-0.5 0.5-0.8 1-0.8h0.3c2 0.5 4.1 0.7 6.2 0.7 12.6 0 22.9-8.9 22.9-19.9s-10.3-19.9-22.9-19.9-22.9 9-22.9 19.9c0 4.6 1.7 8.9 5 12.5 0.3 0.3 0.4 0.7 0.2 1.1-0.5 1.2-1 2.2-1.7 3.1l-1.7 1.7s1 0 2.5-0.1h0.1c1.8-0.2 3.5-0.7 4.9-1.6 0.2-0.1 0.4-0.2 0.5-0.2 0.4 0 0.7 0.2 0.9 0.5 0.3 0.5 0.1 1.2-0.4 1.5-2.2 1.3-4.7 2-7.5 2-0.8 0-1.6-0.1-2.4-0.2-0.7-0.1-1.3-0.6-1.4-1.3-0.2-0.7 0.1-1.4 0.7-1.8 1.2-0.8 2.1-1.8 2.8-3.2 0.2-0.4 0.1-0.8-0.1-1.1-3.1-3.7-4.7-8.3-4.7-12.9 0.2-12.1 11.4-22 25.2-22s25 9.9 25 22.1-11.2 22-25 22zm7.8-20.6c-0.8 0-1.4-0.6-1.4-1.4s0.6-1.4 1.4-1.4 1.4 0.6 1.4 1.4c0 0.7-0.6 1.4-1.4 1.4zm-7.8 0c-0.8 0-1.4-0.6-1.4-1.4s0.6-1.4 1.4-1.4 1.4 0.6 1.4 1.4c0 0.7-0.6 1.4-1.4 1.4zm-7.8 0c-0.8 0-1.4-0.6-1.4-1.4s0.6-1.4 1.4-1.4 1.4 0.6 1.4 1.4c0 0.7-0.6 1.4-1.4 1.4z"/>
		</g>
    </symbol>

    

    <!-- HEADER menu icons -->

    <!-- menu about-us icon -->
    <symbol id="menu_about_us" viewBox="0 0 333 374.8" style="enable-background:new 0 0 333 374.8;">
        <g>
            <path d="M92.7,152.8c17.7,42,51.4,64.9,73.8,64.9c22.1,0,53-22.1,70.9-63.6c4.3-10.1,8.1-22.9,10.7-35.5
                c2.9-10.1,4.5-22.8,4.5-39.1c0-43.1-38.6-79.4-86.2-79.4c-47.6,0-86.2,36.3-86.2,79.4c0,11.4,0.7,21,2,29.2
                C84.1,123.6,87.5,140.5,92.7,152.8z"/>
            <path d="M318.9,275.6c-17.2-18.4-65.7-13.8-89.6-26.5c-10.6,19.9-10.8,52.6-28.5,52.6c-0.8,0-1.5-0.1-2.4-0.2
                c-26.6-4-13.3-71.9-32-71.9c-18.6,0-5.3,67.9-32,71.9c-0.8,0.1-1.6,0.2-2.4,0.2c-17.7,0-17.8-32.7-28.5-52.6
                c-23.9,12.7-72.4,8-89.5,26.5C4.8,285.6,0,347.4,0,374.8h333C333,347.4,328.2,285.6,318.9,275.6z"/>
        </g>
    </symbol>

    <!-- menu books icon -->
    <symbol id="menu_books" viewBox="0 0 275.3 380.3" style="enable-background:new 0 0 275.3 380.3;">
        <g>
            <path d="M39.6,0C20.1,0,3.7,14.4,0.6,33.1H0v275.7h0.8c3.6,18.2,19.6,31.9,38.8,31.9h11v39.6l30.3-19.2l30.3,19.2v-39.6h164.1
                v-67.6v-11.6V0H39.6z M11.6,273.2V40.6l0-1.6c0.2-12.3,8.5-22.7,19.7-26.2v249.6c-0.2,0-0.4,0.1-0.6,0.1c-0.3,0.1-0.7,0.1-1,0.2
                c-0.3,0.1-0.6,0.2-0.9,0.3c-0.3,0.1-0.6,0.2-1,0.3c-0.3,0.1-0.6,0.2-0.9,0.3c-0.3,0.1-0.6,0.2-0.9,0.3c-0.3,0.1-0.6,0.2-0.9,0.3
                c-0.3,0.1-0.6,0.2-0.9,0.4c-0.3,0.1-0.6,0.3-0.9,0.4c-0.3,0.1-0.6,0.3-0.9,0.4c-0.3,0.1-0.5,0.3-0.8,0.4c-0.3,0.2-0.6,0.3-0.9,0.5
                c-0.3,0.1-0.5,0.3-0.8,0.4c-0.3,0.2-0.6,0.3-0.9,0.5c-0.2,0.1-0.5,0.3-0.7,0.5c-0.3,0.2-0.6,0.4-0.9,0.6c-0.2,0.2-0.5,0.3-0.7,0.5
                c-0.3,0.2-0.6,0.4-0.9,0.6c-0.2,0.2-0.4,0.3-0.6,0.5c-0.3,0.2-0.6,0.5-0.9,0.7c-0.2,0.2-0.4,0.3-0.6,0.5c-0.3,0.2-0.6,0.5-0.9,0.8
                c-0.2,0.2-0.4,0.3-0.5,0.5C12.1,272.7,11.8,273,11.6,273.2C11.6,273.2,11.6,273.2,11.6,273.2z M99.7,359.3l-18.8-11.9l-18.7,11.9
                v-41.8h37.5V359.3z M111.2,329.2v-12.6h152.5v12.6H111.2z M263.8,283.8H206v11.6h57.8v9.6H37.1v11.6h13.6v12.6h-11
                c-14.4,0-26.3-10.9-27.9-24.9l-0.1-2.1c0-0.3,0-0.7,0-1c0-15.5,12.6-28,28-28h224.2V283.8z M42.8,261.6v-250h220.9v250H42.8z"/>
            <path d="M78.2,124.3h146.5V54.1H78.2V124.3z M89.8,65.7h123.4v47.1H89.8V65.7z"/>
        </g>
    </symbol>

    <!-- Menu education base icon -->
    <symbol id="education_base" viewBox="0 0 331.1 233.1" style="enable-background:new 0 0 331.1 233.1;">
        <g>
            <polygon points="160.8,0 0,74.9 9,79.1 160.8,149.8 301.9,84.1 321.6,74.9    "/>
            <path d="M64.4,126.7V145v44.6c0,24,43.2,43.4,96.4,43.4c36.1,0,67.6-8.9,84.1-22.2c7.9-6.3,12.4-13.5,12.4-21.3v-63l-96.4,44.9
                L64.4,126.7z"/>
            <polygon points="321.3,85.9 314.3,89.1 311.9,111 304.9,174.8 318.9,174.8 331.1,174.8    "/>
        </g>
    </symbol>

    <!-- Menu FAQ icon -->
    <symbol id="menu_faq" viewBox="0 0 287.5 288.3" style="enable-background:new 0 0 287.5 288.3;">
        <g>
            <path d="M93.9,212c0-25.9-21.1-46.9-46.9-46.9S0,186.2,0,212c0,11.9,4.4,23.2,12.5,31.8v44.4H21v-47.9l-1.2-1.2
                c-7.2-7.2-11.2-16.9-11.2-27.1c0-21.2,17.2-38.4,38.4-38.4s38.4,17.2,38.4,38.4c0,0.4,0,0.8,0,1.2l-0.1,1.8L96,233.6h-6.8v21.1
                c0,4-3.3,7.2-7.3,7.2H59.5v26.3H68v-17.8h14c8.7,0,15.8-7.1,15.8-15.8v-12.6h13l-16.9-29.2C93.8,212.6,93.9,212.3,93.9,212z"/>
            <path d="M248.2,186.4c-21.7,0-39.3,17.6-39.3,39.3c0,0.2,0,0.3,0,0.5l-14.4,24.9h11.3v9.6c0,7.6,6.1,13.7,13.7,13.7h10.7v13.8h8.5
                v-22.4h-19.2c-2.9,0-5.2-2.3-5.2-5.2v-18.1h-5l8.2-14.3l-0.1-1.6c0-0.4,0-0.7,0-1.1c0-17,13.8-30.8,30.8-30.8
                c17,0,30.8,13.8,30.8,30.8c0,8.2-3.2,15.9-9,21.7l-1.2,1.2v39.6h8.5v-36.1c6.6-7.3,10.2-16.6,10.2-26.4
                C287.5,204.1,269.9,186.4,248.2,186.4z"/>
            <rect x="150.4" y="265.2" width="8.5" height="7.7"/>
            <path d="M147,174.7c-18.4,0-31.5,14.2-31.9,34.6l8.5,0.2c0.3-16,9.5-26.3,23.4-26.3c23.8,0,24.1,18.7,24.1,19.5
                c0,11.3-4.7,15-10,19.1c-4.5,3.5-9.6,7.4-10.6,15.6l0,19.4h8.5v-18.6c0.6-4.3,3.1-6.4,7.4-9.7c5.9-4.6,13.3-10.4,13.3-25.9
                c0-6.6-2.7-13.3-7.3-18.3C168.2,180,160.5,174.7,147,174.7z"/>
            <path d="M45.1,164.9l45.8-41.4h10.5v25.8h95.1l33.4,33.4v-33.4h25.3V37.6h-39.5V0H14.6v123.5h30.5V164.9z M246.7,46.1v94.6h-25.3
                v21.4l-21.3-21.4h-90.1v-17.2h105.8V46.1H246.7z M23.1,115V8.5h184.1V115H87.6l-34,30.8V115H23.1z"/>
            <rect x="56.5" y="39.9" width="117.4" height="8.5"/>
            <rect x="56.5" y="56.3" width="117.4" height="8.5"/>
            <rect x="56.5" y="72.8" width="117.4" height="8.5"/>
        </g>
    </symbol>

    <!-- Menu glossary icon -->
    <symbol id="menu_glossary" viewBox="0 0 333.7 284" style="enable-background:new 0 0 333.7 284;">
        <g>
            <path d="M0,0v284h333.7V0H0z M11.4,11.4h310.9v20.5H11.4V11.4z M11.4,272.6V41.7h310.9v230.9H11.4z"/>
            <rect x="17.2" y="16.1" width="12.8" height="9.8"/>
            <rect x="35.2" y="16.1" width="12.8" height="9.8"/>
            <rect x="53.2" y="16.1" width="12.8" height="9.8"/>
            <path d="M57.6,117.9h27.2l6.5,18.7l9.3-3.2L75.8,62.1l-9.3,0l-24.7,71.2l9.3,3.2L57.6,117.9z M71.2,78.7l10.2,29.4H61L71.2,78.7z"
                />
            <rect x="112.1" y="62.2" width="166.9" height="9.8"/>
            <rect x="112.1" y="83.8" width="166.9" height="9.8"/>
            <rect x="112.1" y="105.3" width="166.9" height="9.8"/>
            <rect x="112.1" y="126.9" width="166.9" height="9.8"/>
            <rect x="39" y="148.5" width="239.9" height="9.8"/>
            <polygon points="39,170.1 39,179.9 39,180 278.9,180 278.9,179.9 278.9,170.1 278.9,170.1 39,170.1    "/>
            <polygon points="39,191.7 39,201.5 39,201.5 278.9,201.5 278.9,201.5 278.9,191.7 278.9,191.7 39,191.7    "/>
            <polygon points="39,213.3 39,223.1 39,223.1 278.9,223.1 278.9,223.1 278.9,213.3 278.9,213.3 39,213.3    "/>
            <rect x="39" y="234.9" width="239.9" height="9.8"/>
        </g>
    </symbol>

    <!-- Menu home icon -->
    <symbol id="menu_home" viewBox="0 0 460.3 460.3" style="enable-background:new 0 0 460.3 460.3;">
        <g>
            <g>
                <g>
                    <path d="M230.1,120.9L66,256.3c0,0.2,0,0.5-0.1,0.9s-0.1,0.7-0.1,0.9v137c0,4.9,1.8,9.2,5.4,12.8c3.6,3.6,7.9,5.4,12.8,5.4h109.6
                        V303.7h73.1v109.6h109.6c4.9,0,9.2-1.8,12.8-5.4c3.6-3.6,5.4-7.9,5.4-12.8V258c0-0.8-0.1-1.3-0.3-1.7L230.1,120.9z"/>
                </g>
                <g>
                    <path d="M457.1,225.4l-62.5-52V57c0-2.7-0.9-4.9-2.6-6.6c-1.7-1.7-3.9-2.6-6.6-2.6h-54.8c-2.7,0-4.9,0.9-6.6,2.6
                        c-1.7,1.7-2.6,3.9-2.6,6.6v55.7l-69.7-58.2c-6.1-4.9-13.3-7.4-21.7-7.4s-15.6,2.5-21.7,7.4L3.2,225.4c-1.9,1.6-3,3.6-3.2,6.2
                        s0.5,4.8,2,6.7l17.7,21.1c1.5,1.7,3.5,2.8,6,3.1c2.3,0.2,4.6-0.5,6.9-2L230.1,95.8l197.6,164.7c1.5,1.3,3.5,2,6,2h0.9
                        c2.5-0.4,4.5-1.4,6-3.1l17.7-21.1c1.5-1.9,2.2-4.1,2-6.7S459,227,457.1,225.4z"/>
                </g>
            </g>
        </g>
    </symbol>

    <!-- Menu arrow down icon -->
    <symbol id="menu_down_arrow" viewBox="0 0 116.1 62.1" style="enable-background:new 0 0 116.1 62.1;">
        <g>
            <path d="M114.9,1.2c-1.6-1.6-4.2-1.6-5.8,0l-51,51.1L7,1.2c-1.6-1.6-4.2-1.6-5.8,0s-1.6,4.2,0,5.8l53.9,53.9
        c0.8,0.8,1.8,1.2,2.9,1.2c1,0,2.1-0.4,2.9-1.2L114.8,7C116.5,5.4,116.5,2.8,114.9,1.2z"/>
        </g>
    </symbol>

</svg>
